<?xml version="1.0" standalone="no"?>
<!DOCTYPE svg PUBLIC "-//W3C//DTD SVG 20010904//EN"
 "http://www.w3.org/TR/2001/REC-SVG-20010904/DTD/svg10.dtd">
<svg version="1.0" xmlns="http://www.w3.org/2000/svg"
 width="1302.000000pt" height="646.000000pt" viewBox="0 0 1302.000000 646.000000"
 preserveAspectRatio="xMidYMid meet">

<g transform="translate(0.000000,646.000000) scale(0.100000,-0.100000)"
fill="#000000" stroke="none">
<path d="M1731 6206 c-7 -8 -11 -27 -9 -43 2 -23 11 -31 48 -44 30 -11 46 -23
48 -36 4 -28 -28 -35 -67 -15 -40 19 -54 7 -22 -19 40 -33 110 -21 123 21 9
26 -12 51 -58 70 -45 20 -57 43 -28 54 9 4 28 -1 41 -10 31 -20 52 -5 28 20
-20 20 -88 21 -104 2z"/>
<path d="M1906 6138 c-15 -46 -30 -89 -33 -95 -9 -25 24 -13 35 12 9 20 19 25
47 25 29 0 36 -4 41 -25 3 -14 12 -25 20 -25 19 0 18 5 -10 86 -35 101 -37
104 -55 104 -12 0 -25 -23 -45 -82z m73 -30 c1 -5 -10 -8 -24 -8 -28 0 -30 4
-13 51 l11 33 13 -34 c7 -19 13 -38 13 -42z"/>
<path d="M2070 6125 c0 -78 3 -95 15 -95 10 0 15 10 15 34 0 31 3 34 39 40 39
6 71 35 71 63 0 30 -39 53 -90 53 l-50 0 0 -95z m104 49 c9 -24 -12 -44 -45
-44 -26 0 -29 4 -29 30 0 27 3 30 34 30 22 0 36 -6 40 -16z"/>
<path d="M2300 6125 l0 -95 65 0 c51 0 65 3 65 15 0 11 -12 15 -51 15 -49 0
-50 1 -47 28 2 22 8 28 36 30 17 2 32 7 32 12 0 5 -15 10 -32 12 -25 2 -34 8
-36 25 -3 20 2 22 44 25 27 2 49 8 52 16 3 9 -14 12 -62 12 l-66 0 0 -95z"/>
<path d="M3040 6195 c0 -14 -4 -25 -10 -25 -5 0 -10 -7 -10 -15 0 -8 4 -15 9
-15 6 0 11 -24 13 -52 3 -49 5 -53 31 -56 29 -4 37 12 12 22 -21 7 -21 86 -1
86 24 0 30 21 7 27 -14 3 -21 13 -21 29 0 15 -6 24 -15 24 -9 0 -15 -9 -15
-25z"/>
<path d="M3133 6208 c2 -7 10 -13 17 -13 7 0 15 6 18 13 2 7 -5 12 -18 12 -13
0 -20 -5 -17 -12z"/>
<path d="M3550 6125 c0 -78 3 -95 15 -95 10 0 15 10 15 28 0 27 24 72 33 62 2
-3 16 -24 31 -47 14 -24 33 -43 41 -43 21 0 20 4 -19 64 l-33 52 29 37 c26 32
27 37 11 37 -10 -1 -31 -19 -48 -40 -16 -21 -33 -39 -37 -40 -5 0 -8 18 -8 40
0 29 -4 40 -15 40 -12 0 -15 -17 -15 -95z"/>
<path d="M4330 6195 c0 -14 -4 -25 -10 -25 -5 0 -10 -7 -10 -15 0 -8 4 -15 9
-15 6 0 11 -24 13 -52 3 -49 5 -53 31 -56 29 -4 37 12 12 22 -21 7 -21 86 -1
86 24 0 30 21 7 27 -14 3 -21 13 -21 29 0 15 -6 24 -15 24 -9 0 -15 -9 -15
-25z"/>
<path d="M4830 6205 c0 -8 7 -15 15 -15 8 0 15 7 15 15 0 8 -7 15 -15 15 -8 0
-15 -7 -15 -15z"/>
<path d="M4917 6214 c-4 -4 -7 -16 -7 -26 0 -10 -4 -18 -10 -18 -5 0 -10 -7
-10 -15 0 -8 5 -15 10 -15 6 0 10 -16 10 -36 0 -48 16 -74 45 -74 28 0 34 15
10 24 -10 3 -15 19 -15 46 0 29 4 40 15 40 8 0 15 7 15 15 0 8 -6 15 -14 15
-8 0 -16 10 -18 22 -3 22 -19 33 -31 22z"/>
<path d="M5010 6125 c0 -76 3 -95 14 -95 11 0 16 15 18 53 3 48 5 52 28 52 23
0 25 -4 28 -52 2 -38 7 -53 18 -53 11 0 14 14 14 59 0 71 -16 91 -61 74 -29
-11 -29 -11 -29 23 0 24 -5 34 -15 34 -12 0 -15 -17 -15 -95z"/>
<path d="M5230 6125 l0 -95 55 0 c42 0 60 5 76 21 22 22 18 55 -9 75 -13 9
-13 12 2 17 22 9 20 54 -3 67 -11 5 -42 10 -70 10 l-51 0 0 -95z m107 49 c7
-20 -13 -34 -49 -34 -23 0 -28 4 -28 25 0 22 4 25 35 25 23 0 38 -6 42 -16z
m4 -76 c14 -22 -3 -38 -42 -38 -34 0 -39 3 -39 23 0 13 3 27 7 31 11 10 65 -2
74 -16z"/>
<path d="M5410 6205 c0 -8 7 -15 15 -15 8 0 15 7 15 15 0 8 -7 15 -15 15 -8 0
-15 -7 -15 -15z"/>
<path d="M6002 6213 c-18 -7 -42 -57 -42 -88 0 -33 24 -81 45 -89 27 -10 60
-7 74 7 11 10 14 10 18 0 10 -28 23 -10 23 32 0 45 0 45 -35 45 -19 0 -35 -4
-35 -10 0 -5 9 -10 21 -10 15 0 19 -4 15 -16 -3 -9 -6 -18 -6 -20 0 -2 -13 -4
-29 -4 -50 0 -74 51 -49 104 16 36 45 43 72 17 28 -26 36 -26 36 -1 0 32 -63
51 -108 33z"/>
<path d="M6570 6125 c0 -76 3 -95 14 -95 8 0 16 12 18 27 4 37 20 38 40 3 9
-17 24 -30 33 -30 14 0 13 7 -8 43 l-25 42 20 25 c15 18 16 26 7 29 -7 2 -26
-11 -41 -30 l-28 -33 0 57 c0 44 -3 57 -15 57 -12 0 -15 -17 -15 -95z"/>
<path d="M6990 6125 l0 -95 55 0 c42 0 55 3 55 15 0 11 -11 15 -40 15 l-40 0
0 80 c0 64 -3 80 -15 80 -12 0 -15 -17 -15 -95z"/>
<path d="M7493 6126 c40 -123 53 -125 92 -13 16 45 30 88 33 95 2 6 -3 12 -11
12 -11 0 -23 -23 -38 -70 -13 -38 -25 -67 -28 -64 -3 3 -15 33 -27 67 -12 37
-27 63 -37 65 -13 3 -10 -13 16 -92z"/>
<path d="M8276 6201 c-24 -26 -4 -36 29 -15 20 13 28 14 40 4 23 -19 18 -35
-22 -66 -47 -35 -62 -54 -63 -76 0 -15 10 -18 65 -18 51 0 65 3 65 15 0 11
-12 15 -45 15 -25 0 -45 4 -45 9 0 4 18 21 40 36 44 31 58 62 40 94 -14 28
-79 29 -104 2z"/>
<path d="M8436 6198 c-23 -33 -21 -109 5 -142 39 -49 118 -22 120 42 4 89 -15
122 -71 122 -29 0 -43 -6 -54 -22z m75 -8 c14 -8 19 -21 19 -55 0 -24 -3 -50
-6 -59 -7 -19 -45 -21 -62 -4 -18 18 -15 94 4 112 18 19 20 19 45 6z"/>
<path d="M8603 6213 c-7 -2 -13 -12 -13 -20 0 -9 6 -13 15 -9 12 4 15 -6 15
-59 0 -51 -3 -65 -15 -65 -8 0 -15 -7 -15 -15 0 -11 12 -15 50 -15 38 0 50 4
50 15 0 9 -9 15 -21 15 -20 0 -21 4 -17 80 3 75 2 80 -17 79 -11 0 -26 -3 -32
-6z"/>
<path d="M8700 6205 c0 -11 12 -15 45 -15 l44 0 -34 -76 c-40 -88 -39 -84 -22
-84 15 0 87 144 87 173 0 14 -10 17 -60 17 -47 0 -60 -3 -60 -15z"/>
<path d="M5500 6195 c0 -8 7 -15 15 -15 8 0 15 7 15 15 0 8 -7 15 -15 15 -8 0
-15 -7 -15 -15z"/>
<path d="M5552 6198 c6 -18 28 -21 28 -4 0 9 -7 16 -16 16 -9 0 -14 -5 -12
-12z"/>
<path d="M2470 6135 l22 -35 -21 -29 c-12 -16 -21 -32 -21 -35 0 -14 23 -4 40
17 l19 22 16 -22 c9 -13 23 -23 31 -23 12 0 11 6 -5 29 -25 35 -26 44 -5 77
23 33 7 45 -18 14 l-20 -25 -15 23 c-9 12 -22 22 -30 22 -11 0 -10 -7 7 -35z"/>
<path d="M2602 6154 c-16 -11 -22 -25 -22 -53 0 -60 48 -89 101 -60 28 15 14
31 -16 17 -19 -8 -28 -8 -40 2 -26 21 -17 30 30 30 38 0 45 3 45 20 0 25 -34
60 -58 60 -10 0 -28 -7 -40 -16z m66 -31 c2 -9 -7 -13 -27 -13 -30 0 -39 9
-24 24 11 10 46 3 51 -11z"/>
<path d="M2748 6153 c-8 -10 -18 -26 -21 -36 -7 -20 9 -68 26 -79 20 -13 64
-9 77 7 17 21 4 32 -20 17 -24 -15 -46 -7 -54 20 -11 43 32 76 61 47 8 -8 13
-7 18 2 10 15 -21 39 -50 39 -12 0 -29 -8 -37 -17z"/>
<path d="M2870 6111 c0 -35 5 -63 13 -69 6 -6 33 -10 60 -10 l47 1 0 69 c0 54
-3 68 -15 68 -11 0 -15 -12 -15 -50 0 -38 -4 -52 -18 -59 -28 -15 -42 6 -42
61 0 36 -4 48 -15 48 -12 0 -15 -13 -15 -59z"/>
<path d="M3140 6101 c0 -57 3 -71 15 -71 13 0 15 12 13 67 -2 42 -8 68 -15 71
-10 3 -13 -15 -13 -67z"/>
<path d="M3214 6103 c28 -84 50 -90 76 -23 31 79 33 90 16 90 -9 0 -21 -21
-32 -52 l-17 -53 -17 50 c-10 29 -24 51 -33 53 -14 3 -13 -6 7 -65z"/>
<path d="M3350 6150 c-24 -24 -26 -67 -4 -98 17 -25 74 -31 93 -9 16 20 3 27
-25 15 -17 -8 -27 -8 -39 2 -26 21 -17 30 30 30 41 0 45 2 45 23 0 51 -63 74
-100 37z m70 -25 c0 -10 -10 -15 -30 -15 -29 0 -38 9 -23 23 13 13 53 7 53 -8z"/>
<path d="M3738 6153 c-24 -28 -28 -50 -17 -83 7 -19 20 -32 35 -36 30 -8 74 3
74 17 0 7 -10 9 -24 5 -30 -7 -56 2 -56 20 0 10 13 14 46 14 45 0 46 1 40 28
-13 50 -68 70 -98 35z m70 -30 c2 -9 -7 -13 -27 -13 -21 0 -31 5 -31 16 0 19
51 16 58 -3z"/>
<path d="M3850 6168 c0 -2 11 -33 25 -68 14 -35 25 -70 25 -77 0 -7 -11 -15
-25 -19 -32 -8 -33 -24 -1 -24 31 0 45 18 78 104 32 81 33 86 15 86 -7 0 -21
-23 -32 -52 l-19 -52 -16 49 c-10 30 -24 51 -33 53 -10 2 -17 2 -17 0z"/>
<path d="M4010 6100 c0 -54 3 -70 14 -70 11 0 16 15 18 53 3 48 5 52 28 52 23
0 25 -4 28 -52 2 -38 7 -53 18 -53 17 0 20 90 4 121 -12 21 -50 25 -68 7 -9
-9 -12 -9 -12 0 0 7 -7 12 -15 12 -12 0 -15 -14 -15 -70z"/>
<path d="M4182 6154 c-28 -20 -31 -83 -4 -107 56 -51 137 18 101 85 -22 42
-57 50 -97 22z m68 -29 c27 -33 -15 -90 -46 -64 -14 12 -19 60 -7 72 11 12 40
8 53 -8z"/>
<path d="M4438 6153 c-24 -28 -28 -50 -17 -83 7 -19 20 -32 35 -36 30 -8 74 3
74 17 0 7 -10 9 -24 5 -30 -7 -56 2 -56 20 0 10 13 14 46 14 45 0 46 1 40 28
-13 50 -68 70 -98 35z m70 -30 c2 -9 -7 -13 -27 -13 -21 0 -31 5 -31 16 0 19
51 16 58 -3z"/>
<path d="M4620 6166 c0 -25 44 -136 54 -136 7 0 19 21 27 48 l13 47 14 -47
c18 -64 37 -61 56 7 9 30 19 61 22 70 4 9 1 15 -8 15 -8 0 -21 -20 -30 -47
l-15 -48 -13 48 c-7 26 -18 47 -25 47 -7 0 -18 -21 -25 -47 l-13 -48 -14 48
c-8 28 -20 47 -29 47 -8 0 -14 -2 -14 -4z"/>
<path d="M4830 6100 c0 -56 3 -70 15 -70 12 0 15 14 15 70 0 56 -3 70 -15 70
-12 0 -15 -14 -15 -70z"/>
<path d="M5410 6085 c0 -50 -4 -85 -10 -85 -5 0 -10 -5 -10 -11 0 -6 10 -9 23
-7 21 3 22 8 25 96 2 77 0 92 -13 92 -12 0 -15 -15 -15 -85z"/>
<path d="M5502 6154 c-28 -20 -31 -83 -4 -107 56 -51 137 18 101 85 -22 42
-57 50 -97 22z m68 -29 c27 -33 -15 -90 -46 -64 -14 12 -19 60 -7 72 11 12 40
8 53 -8z"/>
<path d="M5640 6100 c0 -54 3 -70 14 -70 11 0 16 14 18 48 2 38 7 49 26 57 12
5 22 15 22 22 0 16 -6 16 -31 3 -13 -7 -19 -7 -19 0 0 5 -7 10 -15 10 -12 0
-15 -14 -15 -70z"/>
<path d="M5750 6100 c0 -54 3 -70 14 -70 11 0 16 15 18 53 3 48 5 52 28 52 23
0 25 -4 28 -52 2 -38 7 -53 18 -53 17 0 20 90 4 121 -12 21 -50 25 -68 7 -9
-9 -12 -9 -12 0 0 7 -7 12 -15 12 -12 0 -15 -14 -15 -70z"/>
<path d="M6178 6153 c-24 -28 -28 -50 -17 -83 12 -33 43 -46 83 -36 26 7 49
55 39 84 -11 32 -36 52 -63 52 -15 0 -34 -8 -42 -17z m71 -31 c20 -37 -8 -79
-43 -66 -35 13 -23 84 14 84 11 0 24 -8 29 -18z"/>
<path d="M6330 6150 c-24 -24 -26 -67 -4 -98 17 -25 74 -31 93 -9 16 20 3 27
-25 15 -17 -8 -27 -8 -39 2 -26 21 -17 30 30 30 41 0 45 2 45 23 0 51 -63 74
-100 37z m70 -25 c0 -10 -10 -15 -30 -15 -29 0 -38 9 -23 23 13 13 53 7 53 -8z"/>
<path d="M6460 6100 c0 -54 3 -70 14 -70 11 0 16 14 18 48 2 38 7 49 26 57 12
5 22 15 22 22 0 16 -6 16 -31 3 -13 -7 -19 -7 -19 0 0 5 -7 10 -15 10 -12 0
-15 -14 -15 -70z"/>
<path d="M6734 6162 c-16 -11 -34 -48 -34 -71 0 -47 80 -82 109 -48 15 19 3
28 -20 14 -14 -9 -24 -9 -36 -1 -35 22 -26 34 25 34 l51 0 -10 32 c-5 17 -14
35 -21 40 -16 10 -49 10 -64 0z m60 -37 c4 -12 -3 -15 -29 -15 -26 0 -33 3
-29 15 4 8 16 15 29 15 13 0 25 -7 29 -15z"/>
<path d="M7152 6159 c-34 -13 -18 -29 23 -22 44 7 48 -15 4 -24 -17 -3 -37
-16 -46 -29 -23 -36 -4 -52 60 -52 l52 1 -3 56 c-2 31 -9 62 -14 69 -12 14
-43 15 -76 1z m58 -78 c0 -20 -32 -37 -50 -26 -17 10 -11 25 13 35 33 13 37
12 37 -9z"/>
<path d="M7293 6163 c-7 -2 -13 -17 -13 -33 0 -24 6 -30 35 -40 19 -6 35 -18
35 -26 0 -16 -28 -18 -50 -5 -20 13 -34 2 -19 -15 12 -14 55 -19 83 -8 33 13
12 74 -25 74 -9 0 -22 6 -28 14 -15 18 13 30 39 16 12 -6 21 -7 25 -1 12 20
-49 38 -82 24z"/>
<path d="M7640 6150 c-24 -24 -26 -67 -4 -98 17 -25 74 -31 93 -9 16 20 3 27
-25 15 -17 -8 -27 -8 -39 2 -26 21 -17 30 30 30 41 0 45 2 45 23 0 51 -63 74
-100 37z m70 -25 c0 -10 -10 -15 -30 -15 -29 0 -38 9 -23 23 13 13 53 7 53 -8z"/>
<path d="M7788 6159 c-20 -11 -24 -54 -8 -64 8 -5 7 -11 0 -20 -7 -8 -9 -19
-5 -26 4 -6 1 -15 -6 -20 -26 -16 4 -44 50 -47 83 -6 99 53 21 74 -25 7 -36
12 -25 13 30 1 65 29 65 52 0 10 5 19 10 19 6 0 10 6 10 13 0 15 -88 20 -112
6z m62 -39 c0 -10 -6 -20 -12 -23 -21 -7 -38 4 -38 23 0 10 6 20 13 23 20 7
37 -4 37 -23z m15 -105 c0 -5 -17 -11 -37 -13 -30 -3 -38 0 -38 13 0 13 8 16
38 13 20 -2 37 -7 37 -13z"/>
<path d="M7943 6160 c-37 -15 -26 -29 17 -23 47 7 56 -12 11 -22 -40 -9 -68
-41 -55 -63 14 -21 50 -27 70 -12 10 9 14 9 14 1 0 -6 7 -11 15 -11 12 0 15
13 15 58 0 78 -24 97 -87 72z m55 -76 c-5 -26 -35 -41 -50 -26 -11 11 -9 16 6
28 26 19 48 18 44 -2z"/>
<path d="M8072 6158 c-28 -28 -10 -60 41 -72 41 -10 28 -32 -17 -28 -20 2 -36
-1 -36 -6 0 -23 78 -30 98 -10 24 24 13 49 -28 65 -22 9 -40 20 -40 24 0 15
20 20 39 9 14 -7 22 -7 27 1 15 25 -61 40 -84 17z"/>
<path d="M6851 6048 c0 -7 4 -22 8 -33 8 -19 8 -19 19 2 17 31 15 43 -8 43
-11 0 -20 -6 -19 -12z"/>
<path d="M7258 4268 c-2 -887 -2 -1733 0 -1880 l3 -268 2879 0 2880 0 0 1880
0 1880 -2880 0 -2880 0 -2 -1612z m552 1442 c0 -5 -4 -10 -10 -10 -5 0 -10 5
-10 10 0 6 5 10 10 10 6 0 10 -4 10 -10z m233 -63 c18 -4 17 -5 -5 -6 -27 -1
-28 1 -26 42 l1 42 4 -37 c3 -28 9 -38 26 -41z m629 49 c3 -14 1 -31 -3 -38
-6 -8 -9 1 -9 25 0 42 6 48 12 13z m685 2 c-3 -8 -6 -5 -6 6 -1 11 2 17 5 13
3 -3 4 -12 1 -19z m203 8 c0 -3 -4 -8 -10 -11 -5 -3 -10 -1 -10 4 0 6 5 11 10
11 6 0 10 -2 10 -4z m280 0 c0 -3 -4 -8 -10 -11 -5 -3 -10 -1 -10 4 0 6 5 11
10 11 6 0 10 -2 10 -4z m110 -6 c0 -5 -2 -10 -4 -10 -3 0 -8 5 -11 10 -3 6 -1
10 4 10 6 0 11 -4 11 -10z m-1052 -25 c-3 -3 -9 2 -12 12 -6 14 -5 15 5 6 7
-7 10 -15 7 -18z m29 -22 c-3 -10 -5 -2 -5 17 0 19 2 27 5 18 2 -10 2 -26 0
-35z m801 22 c-3 -3 -9 2 -12 12 -6 14 -5 15 5 6 7 -7 10 -15 7 -18z m145 5
c-3 -12 -8 -19 -11 -16 -5 6 5 36 12 36 2 0 2 -9 -1 -20z m-726 -22 c-3 -7 -5
-2 -5 12 0 14 2 19 5 13 2 -7 2 -19 0 -25z m-142 -7 c-3 -6 -14 -10 -23 -10
-15 1 -15 2 1 6 9 2 17 9 17 15 0 6 3 9 6 5 3 -3 3 -10 -1 -16z m-1115 5 c0
-3 -4 -8 -10 -11 -5 -3 -10 -1 -10 4 0 6 5 11 10 11 6 0 10 -2 10 -4z m1821
-14 c-7 -2 -18 1 -23 6 -8 8 -4 9 13 5 13 -4 18 -8 10 -11z m-1874 2 c-3 -3
-12 -4 -19 -1 -8 3 -5 6 6 6 11 1 17 -2 13 -5z m280 0 c-3 -3 -12 -4 -19 -1
-8 3 -5 6 6 6 11 1 17 -2 13 -5z m770 0 c-3 -3 -12 -4 -19 -1 -8 3 -5 6 6 6
11 1 17 -2 13 -5z m180 0 c-3 -3 -12 -4 -19 -1 -8 3 -5 6 6 6 11 1 17 -2 13
-5z m-1323 -85 c56 -15 128 -91 145 -152 15 -50 10 -131 -9 -167 -10 -19 -13
-19 -33 -5 -29 20 -43 19 -67 -5 -28 -28 -27 -70 2 -70 l22 0 -22 -22 c-30
-31 -141 -38 -206 -13 -98 38 -158 152 -136 259 29 139 161 215 304 175z m539
-61 c-1 -23 -2 -49 -2 -55 -2 -30 -21 -10 -21 22 0 33 -2 35 -20 25 -12 -6
-20 -21 -20 -35 0 -14 -4 -25 -10 -25 -5 0 -10 20 -10 45 0 43 1 45 29 41 22
-2 31 1 35 16 8 34 21 12 19 -34z m177 -13 l0 -53 -37 1 c-35 2 -38 4 -44 39
-8 49 3 67 31 51 27 -17 30 -16 30 8 0 11 5 17 10 14 6 -3 10 -30 10 -60z
m-370 40 c17 -21 4 -32 -20 -18 -24 15 -45 -7 -35 -37 7 -22 25 -26 43 -8 17
17 28 2 12 -17 -14 -17 -65 -20 -75 -5 -11 18 -8 69 5 85 16 19 54 19 70 0z
m44 0 c3 -8 12 -12 20 -9 17 7 36 -24 36 -60 0 -16 -6 -26 -15 -26 -10 0 -15
10 -15 30 0 17 -4 30 -10 30 -5 0 -10 -13 -10 -30 0 -20 -5 -30 -15 -30 -12 0
-15 13 -15 55 0 52 11 72 24 40z m617 5 c13 -7 19 -21 19 -43 0 -42 -15 -57
-57 -57 -33 0 -33 0 -33 48 0 27 3 52 7 55 10 10 42 8 64 -3z m1362 -7 c-7 -2
-14 -21 -14 -41 -2 -32 -3 -33 -6 -9 -5 35 2 57 19 56 10 0 10 -2 1 -6z m37
-3 c0 -5 -2 -10 -4 -10 -3 0 -8 5 -11 10 -3 6 -1 10 4 10 6 0 11 -4 11 -10z
m370 0 c0 -5 -5 -10 -11 -10 -5 0 -7 5 -4 10 3 6 8 10 11 10 2 0 4 -4 4 -10z
m90 1 c0 -5 -7 -11 -14 -14 -10 -4 -13 -1 -9 9 6 15 23 19 23 5z m181 -62 c6
-4 9 -13 7 -20 -2 -7 -14 3 -27 24 -12 20 -27 37 -32 37 -5 0 -9 8 -9 17 0 11
8 6 25 -17 14 -19 30 -37 36 -41z m6 34 c-3 -10 -5 -4 -5 12 0 17 2 24 5 18 2
-7 2 -21 0 -30z m311 6 c-3 -8 -7 -3 -11 10 -4 17 -3 21 5 13 5 -5 8 -16 6
-23z m45 16 c-3 -9 -8 -14 -10 -11 -3 3 -2 9 2 15 9 16 15 13 8 -4z m37 5 c0
-5 -2 -10 -4 -10 -3 0 -8 5 -11 10 -3 6 -1 10 4 10 6 0 11 -4 11 -10z m154 -5
c-4 -8 -8 -15 -10 -15 -2 0 -4 7 -4 15 0 8 4 15 10 15 5 0 7 -7 4 -15z m-2989
-20 c1 -11 4 -26 8 -33 12 -19 -1 -32 -33 -32 -30 0 -48 14 -31 24 5 3 7 15 4
27 -6 23 12 41 37 36 8 -1 15 -11 15 -22z m169 19 c11 -4 16 -19 16 -46 0 -38
-1 -39 -32 -36 -40 4 -48 30 -16 47 13 6 16 10 6 7 -22 -6 -30 4 -17 21 13 15
20 16 43 7z m94 -7 c18 -12 16 -77 -3 -77 -10 0 -15 10 -15 30 0 17 -4 30 -10
30 -5 0 -10 -13 -10 -30 0 -20 -5 -30 -15 -30 -11 0 -15 11 -15 38 0 21 2 41
5 43 7 8 49 5 63 -4z m250 -25 c4 -42 20 -41 24 1 4 46 22 39 26 -10 3 -43 3
-43 -31 -43 -36 0 -47 12 -47 51 0 12 -5 16 -15 13 -9 -4 -15 -19 -15 -35 0
-19 -5 -29 -15 -29 -11 0 -15 11 -15 38 0 21 2 41 4 43 3 3 22 4 43 4 35 -1
38 -4 41 -33z m170 25 c18 -12 16 -77 -3 -77 -10 0 -15 10 -15 30 0 17 -4 30
-10 30 -5 0 -10 -13 -10 -30 0 -16 -4 -30 -10 -30 -5 0 -10 11 -10 24 0 14 -4
28 -10 31 -6 4 -10 -7 -10 -24 0 -21 -5 -31 -15 -31 -11 0 -15 11 -15 38 0 21
2 41 5 44 8 8 88 4 103 -5z m140 -34 c3 -46 -14 -61 -20 -18 -2 14 -7 24 -13
23 -5 -2 -8 -13 -7 -25 2 -16 -2 -23 -12 -23 -11 0 -16 9 -16 30 0 17 -4 30
-10 30 -5 0 -10 -13 -10 -30 0 -20 -5 -30 -15 -30 -11 0 -15 11 -15 38 0 21 2
41 4 43 3 2 28 4 58 4 l53 0 3 -42z m1040 -27 c16 0 20 -2 12 -10 -18 -18 -45
7 -47 45 l-1 34 6 -35 c6 -28 11 -35 30 -34z m-480 29 c-3 -3 -9 2 -12 12 -6
14 -5 15 5 6 7 -7 10 -15 7 -18z m120 4 c-11 -17 -10 -22 6 -35 11 -8 15 -14
9 -14 -19 0 -35 28 -28 50 3 11 11 20 16 20 5 0 4 -9 -3 -21z m1029 -23 c-9
-22 -36 -31 -49 -18 -8 8 -5 9 10 5 27 -7 40 20 21 45 -12 16 -12 16 5 0 11
-9 16 -23 13 -32z m31 19 c-3 -3 -9 2 -12 12 -6 14 -5 15 5 6 7 -7 10 -15 7
-18z m-1231 -17 c-3 -7 -5 -2 -5 12 0 14 2 19 5 13 2 -7 2 -19 0 -25z m276
-22 c18 -3 18 -4 -3 -3 -19 2 -25 8 -26 27 -1 20 0 21 3 3 2 -12 14 -24 26
-27z m314 32 c-3 -8 -6 -5 -6 6 -1 11 2 17 5 13 3 -3 4 -12 1 -19z m809 -7
c-17 -19 -17 -20 6 -24 17 -3 14 -5 -11 -6 l-34 -1 23 25 c27 29 42 34 16 6z
m-471 -1 c3 -6 -4 -10 -17 -10 -18 0 -20 2 -8 10 19 12 18 12 25 0z m561 -16
c15 6 16 4 7 -5 -14 -14 -43 -5 -43 13 0 10 3 9 9 -1 6 -9 16 -11 27 -7z
m-1675 -11 c13 -16 12 -17 -3 -4 -10 7 -18 15 -18 17 0 8 8 3 21 -13z m152 5
c-2 -5 -10 -8 -18 -8 -8 0 -16 3 -18 8 -3 4 5 7 18 7 13 0 21 -3 18 -7z m672
2 c-3 -5 -14 -10 -23 -9 -14 0 -13 2 3 9 27 11 27 11 20 0z m-598 -6 c-3 -3
-12 -4 -19 -1 -8 3 -5 6 6 6 11 1 17 -2 13 -5z m80 0 c-3 -3 -12 -4 -19 -1 -8
3 -5 6 6 6 11 1 17 -2 13 -5z m246 -1 c-7 -2 -19 -2 -25 0 -7 3 -2 5 12 5 14
0 19 -2 13 -5z m-2023 -148 c0 -37 3 -44 23 -48 16 -3 13 -5 -10 -6 l-33 -1 0
56 c0 34 4 53 10 49 6 -3 10 -26 10 -50z m70 45 c0 -5 -2 -10 -4 -10 -3 0 -8
5 -11 10 -3 6 -1 10 4 10 6 0 11 -4 11 -10z m280 -46 l0 -55 -31 3 c-44 4 -59
30 -34 58 10 11 25 18 32 16 8 -3 13 2 13 14 0 11 5 20 10 20 6 0 10 -25 10
-56z m456 31 c-1 -14 -6 -28 -9 -32 -4 -3 -7 -18 -8 -32 -1 -20 -3 -18 -10 12
-6 25 -5 45 1 58 15 27 29 24 26 -6z m694 15 c0 -5 -4 -10 -10 -10 -5 0 -10 5
-10 10 0 6 5 10 10 10 6 0 10 -4 10 -10z m510 0 c0 -5 -4 -10 -10 -10 -5 0
-10 5 -10 10 0 6 5 10 10 10 6 0 10 -4 10 -10z m230 0 c0 -5 -4 -10 -10 -10
-5 0 -10 5 -10 10 0 6 5 10 10 10 6 0 10 -4 10 -10z m-619 -12 c5 -53 2 -87
-6 -85 -12 4 -25 65 -18 84 6 16 23 17 24 1z m345 -5 c9 -13 9 -21 1 -31 -8
-10 -7 -19 2 -34 11 -17 10 -19 -6 -16 -19 3 -32 48 -25 81 5 22 11 22 28 0z
m-1826 -47 c-15 -46 -34 -46 -47 -1 -12 39 2 50 16 13 9 -23 9 -23 20 6 16 40
26 25 11 -18z m80 29 c13 -15 5 -55 -13 -67 -18 -11 -47 11 -47 35 0 41 36 61
60 32z m198 3 c20 -20 14 -38 -14 -38 -15 0 -23 -4 -19 -10 4 -6 15 -8 26 -5
10 4 19 2 19 -3 0 -17 -40 -21 -55 -5 -19 19 -19 38 1 57 19 19 26 20 42 4z
m130 -30 c2 -22 -1 -38 -7 -38 -6 0 -11 14 -11 30 0 17 -4 30 -10 30 -5 0 -10
-11 -10 -24 0 -35 -18 -42 -22 -9 -4 36 -22 36 -26 1 -5 -40 -22 -35 -22 6 0
38 8 43 70 42 33 -1 35 -3 38 -38z m82 28 c20 -25 8 -61 -22 -64 -36 -4 -53
26 -32 56 18 25 37 28 54 8z m120 -6 c6 -12 8 -30 5 -41 -10 -29 -59 -22 -63
9 -7 46 38 70 58 32z m814 14 c10 -4 16 -18 16 -41 0 -20 -4 -32 -10 -28 -5 3
-10 18 -10 31 0 34 -24 26 -28 -9 -5 -39 -22 -33 -22 7 0 24 5 36 18 39 9 3
18 5 19 6 1 0 8 -2 17 -5z m134 -6 c18 -18 14 -38 -8 -38 -11 0 -20 -5 -20
-11 0 -6 9 -8 20 -4 11 3 20 2 20 -3 0 -17 -40 -21 -55 -5 -26 25 -12 73 20
73 6 0 16 -5 23 -12z m93 2 c10 0 12 -60 3 -84 -7 -18 -64 -23 -64 -5 0 6 8 8
19 4 11 -3 22 -1 26 5 3 5 -2 10 -12 10 -40 0 -58 50 -25 69 9 6 23 8 30 6 8
-3 18 -5 23 -5z m52 -7 c-7 -3 -13 -18 -13 -34 0 -16 -4 -29 -10 -29 -5 0 -10
15 -10 34 0 25 5 36 18 38 20 5 32 -3 15 -9z m75 -24 c2 -29 -1 -37 -16 -41
-11 -3 -25 -2 -32 2 -17 10 -5 40 15 40 8 0 15 5 15 11 0 6 -7 9 -15 5 -15 -6
-20 5 -8 18 17 17 38 -1 41 -35z m162 27 c6 -8 10 -25 8 -38 -2 -18 -9 -23
-33 -23 -24 0 -31 5 -33 23 -4 25 13 52 33 52 7 0 18 -7 25 -14z m84 -2 c9
-25 7 -64 -4 -64 -5 0 -10 14 -10 31 0 38 -24 35 -28 -4 -5 -39 -18 -33 -18 8
0 33 7 40 42 44 7 0 15 -6 18 -15z m156 -3 c13 -24 13 -61 1 -61 -5 0 -11 12
-13 27 -4 39 -28 42 -28 4 0 -17 -4 -31 -10 -31 -15 0 -12 67 3 73 24 10 36 7
47 -12z m614 3 c29 -28 15 -64 -24 -64 -25 0 -40 15 -40 40 0 11 29 40 40 40
5 0 16 -7 24 -16z m84 4 c14 -14 16 -68 3 -68 -5 0 -11 12 -13 27 -4 39 -28
42 -28 4 0 -17 -4 -31 -10 -31 -5 0 -10 15 -10 34 0 32 4 37 41 45 3 0 10 -4
17 -11z m-2948 -33 c0 -19 -4 -35 -10 -35 -5 0 -10 16 -10 35 0 19 5 35 10 35
6 0 10 -16 10 -35z m1430 0 c0 -19 -4 -35 -10 -35 -5 0 -10 16 -10 35 0 19 5
35 10 35 6 0 10 -16 10 -35z m510 0 c0 -19 -4 -35 -10 -35 -5 0 -10 16 -10 35
0 19 5 35 10 35 6 0 10 -16 10 -35z m230 0 c0 -19 -4 -35 -10 -35 -5 0 -10 16
-10 35 0 19 5 35 10 35 6 0 10 -16 10 -35z m-2200 -161 c0 -12 -3 -14 -13 -6
-17 15 -42 -2 -34 -23 5 -11 13 -14 27 -10 11 3 20 2 20 -4 0 -27 -53 -23 -64
5 -3 9 -1 24 4 35 13 24 60 26 60 3z m78 -2 c3 -11 0 -12 -17 -3 -17 10 -22 9
-27 -3 -9 -22 5 -38 27 -31 10 4 19 2 19 -4 0 -16 -40 -24 -55 -11 -16 13 -20
52 -8 64 12 11 56 2 61 -12z m510 -214 c-6 -16 -36 -34 -44 -26 -3 4 -4 14 -1
23 7 17 51 21 45 3z m387 2 c-3 -5 -17 -10 -31 -10 -13 0 -24 5 -24 10 0 6 14
10 31 10 17 0 28 -4 24 -10z m328 3 c-7 -2 -21 -2 -30 0 -10 3 -4 5 12 5 17 0
24 -2 18 -5z m1001 -2 c9 -15 -23 -36 -36 -23 -5 5 -7 15 -4 21 9 13 33 14 40
2z m2191 -4 c11 -9 14 -16 7 -21 -14 -8 -39 2 -46 20 -7 18 14 18 39 1z
m-4255 -7 c0 -12 -35 -31 -44 -23 -8 9 14 33 30 33 8 0 14 -4 14 -10z m1899
-16 c-9 -11 -15 -12 -23 -4 -8 8 -7 13 4 20 20 12 33 1 19 -16z m-359 -5 c0
-5 -7 -9 -15 -9 -15 0 -20 12 -9 23 8 8 24 -1 24 -14z m2329 8 c19 -23 -9 -36
-38 -18 -15 10 -7 31 13 31 8 0 19 -6 25 -13z m-2689 -12 c0 -8 -7 -15 -15
-15 -16 0 -20 12 -8 23 11 12 23 8 23 -8z m155 -14 c-9 -16 -25 -3 -18 15 4
10 9 12 15 6 6 -6 7 -15 3 -21z m365 19 c0 -5 -7 -10 -15 -10 -8 0 -15 5 -15
10 0 6 7 10 15 10 8 0 15 -4 15 -10z m1785 -20 c0 -18 -33 -26 -47 -12 -6 6
-7 15 -3 22 10 16 50 8 50 -10z m-2517 -1 c-2 -6 -8 -10 -13 -10 -5 0 -11 4
-13 10 -2 6 4 11 13 11 9 0 15 -5 13 -11z m3502 -9 c0 -13 -7 -20 -20 -20 -22
0 -23 1 -14 24 9 23 34 20 34 -4z m-1310 -4 c0 -18 -39 -31 -52 -18 -15 15 0
32 28 32 14 0 24 -6 24 -14z m1158 -8 c-6 -18 -28 -21 -28 -4 0 9 7 16 16 16
9 0 14 -5 12 -12z m-1540 -10 c-6 -16 -36 -34 -44 -26 -3 4 -4 14 -1 23 7 17
51 21 45 3z m1332 -9 c0 -5 -7 -9 -15 -9 -15 0 -20 12 -9 23 8 8 24 -1 24 -14z
m-1680 -3 c0 -14 -29 -31 -38 -21 -6 6 18 35 29 35 5 0 9 -6 9 -14z m1518 3
c-2 -6 -8 -10 -13 -10 -5 0 -11 4 -13 10 -2 6 4 11 13 11 9 0 15 -5 13 -11z
m-350 -10 c-2 -6 -8 -10 -13 -10 -5 0 -11 4 -13 10 -2 6 4 11 13 11 9 0 15 -5
13 -11z m162 3 c0 -13 -12 -22 -22 -16 -10 6 -1 24 13 24 5 0 9 -4 9 -8z
m-370 -23 c0 -5 -7 -9 -15 -9 -15 0 -20 12 -9 23 8 8 24 -1 24 -14z m-3670
-89 c0 -5 -5 -10 -11 -10 -5 0 -7 5 -4 10 3 6 8 10 11 10 2 0 4 -4 4 -10z
m2164 -142 c10 -90 86 -1145 86 -1194 l0 -47 -52 7 c-29 4 -64 14 -77 23 -24
15 -26 15 -51 -15 l-26 -32 -270 5 c-369 8 -414 12 -414 36 0 11 7 19 16 19 8
0 13 4 10 9 -4 5 92 10 226 10 128 1 234 4 237 6 2 3 -112 5 -253 5 l-258 0 4
-24 c8 -43 -3 -49 -81 -41 -39 4 -71 11 -71 16 0 5 -13 6 -30 3 -27 -6 -30 -4
-30 20 0 25 -3 27 -32 24 -24 -2 -33 -8 -32 -20 2 -21 -12 -24 -19 -5 -3 9 -7
9 -20 -1 -11 -9 -30 -11 -60 -7 -52 8 -87 0 -87 -21 0 -8 -6 -15 -12 -16 -7 0
-210 -2 -450 -3 l-438 -1 0 623 0 623 78 1 c42 0 160 2 262 4 102 3 496 12
875 20 380 9 708 17 730 19 22 1 84 3 137 4 l97 2 5 -52z m2416 -1 c0 -11 72
-758 90 -936 11 -107 20 -228 20 -268 l0 -73 -32 0 c-18 1 -51 7 -73 15 -48
18 -65 19 -65 4 0 -6 -6 -17 -14 -25 -12 -11 -69 -14 -323 -14 -169 0 -326 3
-348 7 l-40 6 30 9 c17 5 107 11 200 14 94 3 245 12 337 20 92 8 189 12 215 9
27 -4 59 -2 73 4 17 7 -109 10 -423 10 l-448 1 3 -37 3 -38 -65 3 c-114 6
-145 15 -148 40 -5 31 -49 31 -62 0 -5 -13 -9 -17 -9 -10 -1 15 -31 16 -31 1
0 -8 -16 -10 -50 -5 -62 8 -97 0 -103 -25 -5 -18 -16 -19 -150 -19 l-145 0 5
41 6 42 -304 -4 -304 -4 -2 578 -3 577 78 0 c134 0 1519 54 2025 78 31 2 57 1
57 -1z m-2225 -1286 c-6 -5 -21 -12 -35 -16 -24 -7 -24 -7 -5 9 21 16 56 23
40 7z m45 -37 c0 -18 -5 -24 -21 -24 -13 0 -19 5 -15 13 3 6 9 20 12 29 9 24
24 12 24 -18z m609 20 c2 -2 -81 -4 -185 -4 -104 0 -235 -3 -291 -7 -88 -5
-103 -4 -103 9 0 13 36 15 287 11 158 -2 290 -6 292 -9z m1791 -23 c0 -5 -11
-11 -25 -13 -20 -4 -23 -3 -14 8 13 16 39 19 39 5z m34 -45 c-3 -9 -13 -16
-21 -16 -8 0 -12 6 -9 13 3 6 9 20 12 31 6 16 8 16 15 3 5 -8 6 -22 3 -31z
m-3774 19 c0 -8 -4 -15 -10 -15 -5 0 -10 7 -10 15 0 8 5 15 10 15 6 0 10 -7
10 -15z m885 -25 c0 -19 -42 -28 -92 -21 -47 7 -47 19 2 44 25 12 35 13 60 3
16 -7 30 -19 30 -26z m-677 -4 c4 -33 26 -43 50 -25 15 13 16 12 3 -3 -9 -12
-27 -18 -57 -18 -48 0 -52 7 -34 55 13 33 34 28 38 -9z m1100 6 c2 -7 -6 -12
-17 -12 -21 0 -27 11 -14 24 9 9 26 2 31 -12z m-788 -22 c0 -5 -7 -10 -16 -10
-8 0 -12 5 -9 10 3 6 10 10 16 10 5 0 9 -4 9 -10z m791 -8 c27 4 29 2 29 -29
0 -18 -4 -33 -9 -33 -21 0 -41 13 -41 26 0 8 -7 14 -16 14 -10 0 -14 -6 -10
-15 4 -11 -1 -15 -19 -15 -19 0 -25 5 -25 23 0 33 18 49 43 36 10 -6 32 -9 48
-7z m1999 3 c51 -27 34 -49 -37 -47 -26 0 -41 -4 -37 -10 3 -5 -3 -4 -15 4
-28 17 -27 25 12 48 39 24 40 24 77 5z m-862 -6 c-2 -6 -8 -10 -13 -10 -5 0
-11 4 -13 10 -2 6 4 11 13 11 9 0 15 -5 13 -11z m207 -6 c5 -10 7 -26 6 -35
-3 -21 28 -25 47 -6 9 9 12 9 12 0 0 -16 -28 -28 -72 -31 -35 -2 -38 0 -38 24
0 29 16 65 29 65 5 0 12 -8 16 -17z m1103 5 c-3 -7 -15 -15 -28 -16 -21 -3
-22 -2 -11 12 16 19 44 21 39 4z m-10 -36 c26 -3 32 -9 32 -28 0 -27 -34 -34
-44 -9 -3 8 -10 15 -17 15 -6 0 -9 -7 -5 -15 4 -11 -1 -15 -18 -15 -28 0 -37
16 -25 49 7 17 14 21 27 16 9 -5 32 -10 50 -13z m-773 -2 c-3 -5 -14 -10 -23
-10 -15 0 -15 2 -2 10 20 13 33 13 25 0z m-2845 -80 c0 -11 -7 -20 -15 -20 -8
0 -15 9 -15 20 0 11 7 20 15 20 8 0 15 -9 15 -20z m130 12 c0 -5 -6 -16 -13
-27 -16 -20 -33 -5 -23 20 6 16 36 21 36 7z m-380 -18 c0 -2 -9 -4 -21 -4 -11
0 -18 4 -14 10 5 8 35 3 35 -6z m185 6 c-3 -5 -10 -10 -16 -10 -5 0 -9 5 -9
10 0 6 7 10 16 10 8 0 12 -4 9 -10z m2455 -49 c0 -5 -7 -11 -15 -15 -15 -5
-20 5 -8 17 9 10 23 9 23 -2z m60 -11 c0 -11 -7 -20 -15 -20 -8 0 -15 9 -15
20 0 11 7 20 15 20 8 0 15 -9 15 -20z m130 12 c0 -10 -22 -32 -32 -32 -4 0 -8
9 -8 20 0 13 7 20 20 20 11 0 20 -4 20 -8z m-2600 -6 c0 -2 -7 -6 -15 -10 -8
-3 -15 -1 -15 4 0 6 7 10 15 10 8 0 15 -2 15 -4z m130 -6 c0 -5 -5 -10 -11
-10 -5 0 -7 5 -4 10 3 6 8 10 11 10 2 0 4 -4 4 -10z m278 0 c17 0 32 -3 32 -8
0 -4 -21 -7 -47 -6 -92 4 -90 3 -73 14 8 6 24 8 35 5 11 -2 35 -5 53 -5z
m1812 -6 c0 -2 -9 -4 -21 -4 -11 0 -18 4 -14 10 5 8 35 3 35 -6z m-1178 -71
c3 -26 7 -28 55 -31 l51 -3 7 -69 7 -68 35 -7 c30 -5 34 -9 31 -33 -3 -27 -3
-27 -96 -30 -87 -3 -93 -2 -101 19 -4 13 -16 23 -27 25 -10 1 -34 3 -51 5 -18
2 -33 4 -33 5 0 1 -9 39 -20 85 -11 46 -23 94 -25 107 -5 21 -3 22 79 22 l85
0 3 -27z m1848 19 c0 -10 -106 -9 -116 1 -4 4 20 7 54 7 34 0 62 -4 62 -8z
m602 -59 c3 -26 7 -28 54 -31 57 -3 64 -12 64 -84 0 -38 20 -68 46 -68 9 0 14
-11 14 -30 l0 -30 -90 0 c-90 0 -90 0 -90 25 0 28 -5 31 -69 39 -24 3 -45 7
-47 8 -1 2 -13 47 -27 101 l-25 97 83 0 84 0 3 -27z m-2672 -85 c8 -51 14 -95
14 -98 1 -3 -23 -6 -52 -7 -47 -2 -53 0 -47 15 3 9 18 54 33 99 15 46 30 83
33 83 3 0 12 -42 19 -92z m-860 65 c0 -15 2 -16 10 -3 5 8 12 12 15 8 10 -10
-5 -49 -16 -43 -5 4 -9 -1 -9 -9 0 -10 6 -13 15 -10 10 4 15 0 15 -12 0 -12
-3 -15 -8 -8 -4 6 -23 10 -42 9 -65 -4 -80 4 -80 40 0 37 8 43 63 44 29 1 37
-3 37 -16z m-155 -23 c-3 -6 0 -7 8 -4 8 3 18 1 22 -5 3 -6 -2 -11 -13 -11
-13 0 -18 -7 -18 -22 1 -14 -6 -24 -16 -26 -15 -3 -18 4 -18 35 0 32 4 39 20
40 11 1 18 -2 15 -7z m345 -12 c0 -16 -3 -19 -11 -11 -6 6 -8 16 -5 22 11 17
16 13 16 -11z m3120 -65 c8 -43 13 -80 11 -83 -1 -3 -17 -4 -36 -3 -28 1 -35
-2 -35 -18 0 -10 -5 -19 -11 -19 -7 0 -9 8 -4 23 3 12 16 57 27 100 11 42 24
77 28 77 4 0 13 -35 20 -77z m-1825 48 c-3 -11 1 -45 9 -75 8 -31 13 -56 13
-56 -16 -5 -201 -4 -208 1 -6 3 -9 32 -7 65 l3 59 80 3 c44 2 84 7 89 12 16
16 28 11 21 -9z m965 -5 c6 -8 10 -25 8 -38 -3 -20 -10 -23 -50 -26 -44 -3
-48 -1 -54 24 -5 20 -2 31 11 41 25 17 69 17 85 -1z m187 -38 c-3 -8 -6 -5 -6
6 -1 11 2 17 5 13 3 -3 4 -12 1 -19z m-3531 -105 c4 -16 14 -36 22 -46 12 -13
13 -20 5 -25 -15 -9 -10 -45 5 -50 17 -5 15 -22 -3 -22 -8 0 -15 7 -15 15 0
13 -22 15 -135 15 l-135 0 0 70 0 70 125 0 125 0 6 -27z m34 17 c0 -5 -7 -10
-16 -10 -8 0 -12 5 -9 10 3 6 10 10 16 10 5 0 9 -4 9 -10z m1925 -120 c-27
-12 -43 -12 -25 0 8 5 22 9 30 9 10 0 8 -3 -5 -9z"/>
<path d="M7598 5514 c-37 -20 -48 -43 -48 -103 0 -46 2 -51 32 -65 52 -26 86
-18 56 13 -11 10 -7 12 17 9 23 -2 29 -7 27 -22 -4 -24 17 -37 39 -26 9 5 19
7 22 4 9 -9 25 28 32 79 7 45 6 48 -33 87 -33 33 -46 40 -78 40 -22 -1 -51 -7
-66 -16z"/>
<path d="M7600 5281 c0 -6 11 -18 25 -27 21 -14 31 -15 50 -6 23 11 34 31 18
33 -5 0 -27 3 -50 5 -26 3 -43 1 -43 -5z"/>
<path d="M7580 5236 c0 -19 39 -46 65 -46 26 0 63 26 52 36 -4 4 -13 2 -19 -4
-18 -18 -43 -15 -63 8 -21 24 -35 26 -35 6z"/>
<path d="M8415 5488 c-4 -10 -4 -26 0 -35 8 -17 8 -17 12 0 3 9 3 25 0 35 -4
16 -4 16 -12 0z"/>
<path d="M8710 5484 c0 -24 4 -34 13 -32 19 7 21 54 3 61 -13 5 -16 -1 -16
-29z"/>
<path d="M8327 5277 c-3 -8 -1 -20 4 -28 11 -19 34 3 26 25 -8 20 -23 21 -30
3z"/>
<path d="M8210 5280 c0 -5 5 -10 10 -10 6 0 10 5 10 10 0 6 -4 10 -10 10 -5 0
-10 -4 -10 -10z"/>
<path d="M8210 5250 c0 -5 7 -10 15 -10 8 0 15 5 15 10 0 6 -7 10 -15 10 -8 0
-15 -4 -15 -10z"/>
<path d="M8420 5279 c0 -5 5 -7 10 -4 6 3 10 8 10 11 0 2 -4 4 -10 4 -5 0 -10
-5 -10 -11z"/>
<path d="M8617 5277 c-3 -8 -1 -20 4 -28 11 -19 34 3 26 25 -8 20 -23 21 -30
3z"/>
<path d="M8736 5281 c-9 -14 5 -42 18 -38 15 5 14 39 -1 44 -6 2 -14 0 -17 -6z"/>
<path d="M9700 5280 c0 -5 5 -10 10 -10 6 0 10 5 10 10 0 6 -4 10 -10 10 -5 0
-10 -4 -10 -10z"/>
<path d="M9777 5284 c-14 -14 -7 -35 11 -32 9 2 17 10 17 17 0 16 -18 25 -28
15z"/>
<path d="M9910 5250 c0 -5 5 -10 10 -10 6 0 10 5 10 10 0 6 -4 10 -10 10 -5 0
-10 -4 -10 -10z"/>
<path d="M10073 5274 c-9 -23 11 -38 26 -20 13 16 7 36 -10 36 -5 0 -12 -7
-16 -16z"/>
<path d="M10923 5274 c-8 -21 13 -42 28 -27 13 13 5 43 -11 43 -6 0 -13 -7
-17 -16z"/>
<path d="M9320 3880 c0 -5 14 -10 31 -10 17 0 28 4 24 10 -3 6 -17 10 -31 10
-13 0 -24 -4 -24 -10z"/>
<path d="M9407 3884 c-4 -4 -4 -10 -2 -14 6 -10 55 0 55 11 0 10 -43 12 -53 3z"/>
<path d="M8285 3363 c159 -2 273 -7 279 -13 15 -15 43 -12 50 5 5 13 -32 15
-297 13 l-302 -3 270 -2z"/>
<path d="M8720 3360 c0 -5 7 -10 15 -10 8 0 15 5 15 10 0 6 -7 10 -15 10 -8 0
-15 -4 -15 -10z"/>
<path d="M8795 3360 c-4 -6 7 -10 25 -10 18 0 29 4 25 10 -3 6 -15 10 -25 10
-10 0 -22 -4 -25 -10z"/>
<path d="M8636 3333 c-11 -11 -6 -23 9 -23 8 0 15 4 15 9 0 13 -16 22 -24 14z"/>
<path d="M8790 3321 c0 -13 27 -21 45 -15 25 10 17 24 -15 24 -16 0 -30 -4
-30 -9z"/>
<path d="M10670 4170 c0 -6 38 -10 95 -10 57 0 95 4 95 10 0 6 -38 10 -95 10
-57 0 -95 -4 -95 -10z"/>
<path d="M10508 4163 c17 -2 47 -2 65 0 17 2 3 4 -33 4 -36 0 -50 -2 -32 -4z"/>
<path d="M11170 3300 c-12 -8 -10 -10 8 -10 13 0 20 4 17 10 -7 12 -6 12 -25
0z"/>
<path d="M11245 3300 c-4 -6 5 -10 20 -10 15 0 24 4 20 10 -3 6 -12 10 -20 10
-8 0 -17 -4 -20 -10z"/>
<path d="M11080 3255 c0 -9 5 -15 11 -13 6 2 11 8 11 13 0 5 -5 11 -11 13 -6
2 -11 -4 -11 -13z"/>
<path d="M11240 3261 c0 -15 16 -22 34 -15 25 9 19 24 -9 24 -14 0 -25 -4 -25
-9z"/>
<path d="M580 5389 c0 -5 5 -7 10 -4 6 3 10 8 10 11 0 2 -4 4 -10 4 -5 0 -10
-5 -10 -11z"/>
<path d="M1009 5373 c-1 -4 -1 -16 0 -25 3 -21 -3 -22 -29 -6 -16 10 -24 10
-40 0 -24 -14 -70 -16 -70 -2 0 6 6 10 14 10 8 0 18 5 21 10 4 6 -7 10 -25 10
-23 0 -33 -5 -37 -20 -5 -18 -14 -20 -115 -20 -98 0 -109 2 -106 18 5 28 -77
30 -94 3 -10 -17 -23 -21 -65 -21 l-53 0 0 -200 0 -200 675 0 675 0 0 200 0
200 -224 0 c-139 0 -227 4 -231 10 -3 6 -17 10 -31 10 -13 0 -24 -4 -24 -10 0
-5 -7 -10 -15 -10 -8 0 -15 5 -15 10 0 15 -47 12 -53 -2 -4 -10 -7 -10 -18 0
-16 14 -69 16 -69 2 0 -24 -20 -7 -21 18 -1 20 -2 22 -6 7 -7 -31 -23 -42 -23
-18 0 21 -19 43 -21 26z"/>
<path d="M310 5204 c0 -8 5 -12 10 -9 6 4 8 11 5 16 -9 14 -15 11 -15 -7z"/>
<path d="M2450 4855 c0 -62 17 -75 22 -17 3 34 6 37 35 40 17 2 37 10 43 18
11 12 4 14 -44 14 l-56 0 0 -55z"/>
<path d="M1517 4864 c-8 -46 -2 -58 32 -70 21 -9 34 -8 55 3 22 12 26 20 26
58 l0 45 -54 0 -53 0 -6 -36z m103 -14 l0 -40 -45 0 -45 0 0 40 0 40 45 0 45
0 0 -40z"/>
<path d="M2060 4860 c0 -50 52 -39 84 18 5 9 -5 12 -38 12 -44 0 -46 -1 -46
-30z"/>
<path d="M3700 4881 c0 -6 4 -13 10 -16 6 -3 7 1 4 9 -7 18 -14 21 -14 7z"/>
<path d="M1210 4862 c0 -10 -9 -27 -20 -37 -19 -17 -19 -19 -4 -37 21 -23 62
-23 86 -1 17 15 17 17 1 36 -10 10 -18 26 -18 35 0 10 -10 18 -22 20 -17 3
-23 -2 -23 -16z"/>
<path d="M1806 4856 c3 -8 12 -17 21 -20 8 -4 13 -12 10 -20 -4 -9 3 -16 20
-19 23 -4 22 -2 -13 34 -42 43 -46 46 -38 25z"/>
<path d="M2241 4854 c-1 -13 8 -25 24 -32 15 -7 25 -20 25 -32 0 -28 22 -25
54 9 27 28 27 29 7 36 -12 3 -21 14 -22 23 0 14 -3 13 -16 -5 -8 -13 -23 -23
-33 -23 -9 0 -22 10 -28 23 -10 21 -11 21 -11 1z"/>
<path d="M4240 4856 c0 -8 10 -22 21 -30 31 -21 68 -3 69 34 0 9 -5 7 -16 -8
-19 -28 -54 -30 -54 -2 0 11 -4 20 -10 20 -5 0 -10 -6 -10 -14z"/>
<path d="M4530 4856 c0 -8 5 -18 10 -21 6 -3 10 3 10 14 0 12 -4 21 -10 21 -5
0 -10 -6 -10 -14z"/>
<path d="M4593 4844 c-12 -13 -18 -24 -14 -24 5 0 12 -11 15 -25 5 -21 12 -25
42 -25 40 0 54 21 31 45 -17 16 -29 20 -24 8 1 -5 -2 -8 -8 -8 -5 0 -10 12 -9
28 0 32 -4 32 -33 1z"/>
<path d="M3693 4845 c0 -8 4 -15 9 -15 4 0 8 4 8 9 0 6 -4 12 -8 15 -5 3 -9
-1 -9 -9z"/>
<path d="M582 4838 c6 -18 28 -21 28 -4 0 9 -7 16 -16 16 -9 0 -14 -5 -12 -12z"/>
<path d="M1347 4835 c6 -17 25 -15 31 3 2 7 -5 12 -17 12 -14 0 -19 -5 -14
-15z"/>
<path d="M3847 4835 c6 -17 25 -15 31 3 2 7 -5 12 -17 12 -14 0 -19 -5 -14
-15z"/>
<path d="M3960 4830 c0 -28 28 -50 64 -50 38 0 56 15 56 49 l0 25 -21 -22
c-11 -12 -18 -26 -15 -31 3 -4 -8 -8 -24 -9 -25 -1 -30 3 -30 23 0 12 -7 25
-15 29 -10 3 -15 -1 -15 -14z"/>
<path d="M4140 4834 c0 -9 5 -14 12 -12 18 6 21 28 4 28 -9 0 -16 -7 -16 -16z"/>
<path d="M4430 4834 c0 -9 5 -14 12 -12 18 6 21 28 4 28 -9 0 -16 -7 -16 -16z"/>
<path d="M4720 4834 c0 -9 5 -14 12 -12 18 6 21 28 4 28 -9 0 -16 -7 -16 -16z"/>
<path d="M5272 4839 c2 -6 8 -10 13 -10 5 0 11 4 13 10 2 6 -4 11 -13 11 -9 0
-15 -5 -13 -11z"/>
<path d="M3758 4808 c-10 -10 -18 -23 -18 -29 0 -7 10 0 21 15 25 31 22 41 -3
14z"/>
<path d="M3706 4803 c-6 -14 -5 -15 5 -6 7 7 10 15 7 18 -3 3 -9 -2 -12 -12z"/>
<path d="M2771 4784 c0 -11 3 -14 6 -6 3 7 2 16 -1 19 -3 4 -6 -2 -5 -13z"/>
<path d="M2971 4601 c-24 -15 -1 -31 45 -31 32 0 44 4 44 14 0 8 -5 18 -12 22
-8 5 -9 2 -5 -9 5 -14 0 -17 -29 -17 -28 0 -35 3 -30 15 6 17 6 18 -13 6z"/>
<path d="M3180 4554 l0 -45 48 3 47 3 3 43 3 42 -50 0 -51 0 0 -46z m80 1 c0
-33 -2 -35 -35 -35 -32 0 -35 3 -35 28 0 16 3 32 7 35 3 4 19 7 35 7 25 0 28
-3 28 -35z"/>
<path d="M1440 4586 c0 -2 7 -17 15 -32 l15 -29 -3 33 c-1 18 -8 32 -14 32 -7
0 -13 -2 -13 -4z"/>
<path d="M1518 4583 c10 -4 10 -8 1 -19 -9 -11 -9 -18 -1 -26 8 -8 9 -15 1
-25 -9 -10 -8 -13 5 -13 19 0 21 21 4 38 -9 9 -9 15 0 24 17 17 15 28 -5 27
-12 0 -13 -2 -5 -6z"/>
<path d="M1870 4576 c-20 -25 -8 -61 20 -63 l25 -3 -23 10 c-28 12 -28 56 0
54 10 -1 15 2 12 7 -8 13 -20 11 -34 -5z"/>
<path d="M1940 4565 c-12 -31 -3 -55 19 -55 40 0 56 51 22 70 -27 14 -30 13
-41 -15z m35 -15 c0 -13 -6 -25 -12 -27 -9 -3 -13 6 -13 27 0 21 4 30 13 28 6
-3 12 -15 12 -28z"/>
<path d="M2020 4580 c-13 -9 -12 -13 8 -29 27 -23 27 -28 5 -34 -14 -4 -12 -5
5 -6 26 -1 32 33 7 43 -8 3 -15 10 -15 17 0 6 7 8 16 5 8 -3 12 -2 9 4 -8 13
-16 12 -35 0z"/>
<path d="M570 4549 c0 -17 4 -28 10 -24 11 7 9 55 -2 55 -4 0 -8 -14 -8 -31z"/>
<path d="M607 4560 c-3 -11 -1 -20 4 -20 5 0 9 9 9 20 0 11 -2 20 -4 20 -2 0
-6 -9 -9 -20z"/>
<path d="M962 4548 c2 -17 10 -33 18 -35 10 -3 11 -2 4 4 -7 4 -10 20 -9 36 2
15 -1 27 -7 27 -5 0 -8 -14 -6 -32z"/>
<path d="M2111 4543 c1 -24 3 -29 6 -15 2 12 7 22 10 22 2 0 13 -10 24 -22
l18 -23 0 40 c-1 33 -2 36 -8 15 l-7 -25 -12 23 c-19 33 -32 27 -31 -15z"/>
<path d="M647 4563 c-4 -3 -7 -16 -6 -27 0 -19 1 -19 10 3 10 24 8 36 -4 24z"/>
<path d="M687 4563 c-4 -3 -7 -11 -7 -17 0 -6 5 -4 10 4 7 11 12 12 21 3 15
-15 1 -36 -20 -28 -13 5 -14 4 -3 -6 10 -11 15 -10 29 3 13 14 14 20 3 32 -14
17 -23 20 -33 9z"/>
<path d="M771 4556 c-12 -14 12 -56 25 -43 4 4 2 7 -4 7 -19 0 -14 28 6 32 16
3 16 4 0 10 -9 4 -21 1 -27 -6z"/>
<path d="M840 4560 c-9 -6 -10 -10 -3 -10 6 0 15 5 18 10 8 12 4 12 -15 0z"/>
<path d="M890 4546 c0 -35 15 -40 16 -5 1 16 -3 29 -7 29 -5 0 -9 -11 -9 -24z"/>
<path d="M1087 4564 c-13 -13 -7 -27 6 -15 15 12 27 5 27 -16 0 -10 -6 -12
-20 -8 -14 5 -20 2 -20 -9 0 -19 10 -20 34 -3 10 7 17 22 14 33 -3 19 -28 30
-41 18z"/>
<path d="M1180 4555 c-16 -19 -5 -47 17 -43 11 2 18 12 18 27 0 29 -17 37 -35
16z m30 -15 c0 -11 -4 -20 -9 -20 -14 0 -23 18 -16 30 10 17 25 11 25 -10z"/>
<path d="M1247 4563 c-4 -3 -7 -16 -6 -27 0 -19 1 -19 10 3 10 24 8 36 -4 24z"/>
<path d="M1284 4556 c-8 -21 2 -46 18 -45 10 0 10 2 1 6 -7 2 -13 12 -13 20 0
10 6 13 16 9 10 -4 14 -1 12 6 -7 19 -27 21 -34 4z"/>
<path d="M1344 4555 c-3 -8 -4 -20 -2 -27 3 -7 7 -1 10 15 6 29 1 36 -8 12z"/>
<path d="M2211 4552 c7 -12 10 -25 6 -29 -5 -4 -12 -1 -17 7 -8 13 -10 12 -10
-2 0 -12 8 -18 21 -18 16 0 20 5 17 27 -2 14 -9 28 -16 31 -11 3 -11 1 -1 -16z"/>
<path d="M2341 4561 c-9 -6 -11 -15 -6 -27 5 -11 7 -25 6 -32 -1 -8 5 -12 16
-10 13 2 18 12 18 37 0 36 -11 46 -34 32z m24 -31 c-5 -8 -11 -8 -17 -2 -6 6
-7 16 -3 22 5 8 11 8 17 2 6 -6 7 -16 3 -22z"/>
<path d="M2421 4552 c7 -12 10 -25 6 -29 -5 -4 -12 -1 -17 7 -8 13 -10 12 -10
-2 0 -12 8 -18 21 -18 16 0 20 5 17 27 -2 14 -9 28 -16 31 -11 3 -11 1 -1 -16z"/>
<path d="M2460 4546 c0 -35 15 -40 16 -5 1 16 -3 29 -7 29 -5 0 -9 -11 -9 -24z"/>
<path d="M2504 4555 c-9 -23 4 -47 23 -43 22 4 30 38 11 49 -19 13 -28 11 -34
-6z m28 -27 c-15 -15 -26 -4 -18 18 5 13 9 15 18 6 9 -9 9 -15 0 -24z"/>
<path d="M2567 4563 c-4 -3 -7 -16 -6 -27 0 -19 1 -19 10 3 10 24 8 36 -4 24z"/>
<path d="M1036 4545 c4 -8 10 -12 15 -9 11 6 2 24 -11 24 -5 0 -7 -7 -4 -15z"/>
<path d="M2271 4543 c-7 -8 -10 -17 -7 -20 9 -9 29 13 25 25 -2 6 -10 3 -18
-5z"/>
<path d="M838 4518 c5 -5 16 -8 23 -6 8 3 3 7 -10 11 -17 4 -21 3 -13 -5z"/>
<path d="M1445 4510 c3 -5 11 -10 16 -10 6 0 7 5 4 10 -3 6 -11 10 -16 10 -6
0 -7 -4 -4 -10z"/>
<path d="M3215 4340 c3 -5 8 -10 11 -10 2 0 4 5 4 10 0 6 -5 10 -11 10 -5 0
-7 -4 -4 -10z"/>
<path d="M3267 4330 c-9 -11 -13 -20 -8 -20 4 0 16 9 26 20 10 11 14 20 9 20
-5 0 -17 -9 -27 -20z"/>
<path d="M620 4171 c0 -40 43 -48 53 -10 4 15 0 19 -24 19 -16 0 -29 -4 -29
-9z"/>
<path d="M802 4148 c-25 -25 -1 -77 30 -65 9 4 7 6 -4 6 -18 1 -33 35 -23 52
4 6 16 9 26 6 11 -3 17 -1 13 4 -7 13 -28 11 -42 -3z"/>
<path d="M874 4135 c-6 -26 9 -55 29 -55 6 0 3 6 -7 13 -25 18 -17 52 11 51
12 0 20 3 17 8 -12 18 -44 7 -50 -17z"/>
<path d="M1087 4154 c9 -4 9 -13 2 -32 -9 -25 -8 -26 6 -8 20 26 19 46 -2 45
-10 0 -13 -3 -6 -5z"/>
<path d="M1142 4148 c-16 -16 -15 -43 3 -58 15 -13 35 -6 35 13 0 7 -4 6 -10
-3 -7 -11 -12 -12 -21 -3 -16 16 -6 48 14 47 9 -1 14 2 11 7 -7 12 -18 11 -32
-3z"/>
<path d="M1227 4153 c-2 -5 0 -21 4 -38 7 -29 7 -29 8 8 1 35 -3 46 -12 30z"/>
<path d="M721 4118 c1 -27 3 -29 6 -9 l5 25 18 -24 c10 -14 22 -21 26 -17 6 6
-40 57 -52 57 -2 0 -3 -15 -3 -32z"/>
<path d="M1006 4142 c7 -4 14 -16 17 -27 4 -15 5 -14 6 8 1 20 -4 27 -16 27
-12 0 -14 -3 -7 -8z"/>
<path d="M1320 4122 c0 -13 4 -21 10 -17 6 4 19 1 28 -7 15 -12 16 -11 3 4 -7
10 -11 24 -8 31 3 8 -3 13 -14 13 -13 0 -19 -7 -19 -24z"/>
<path d="M1420 4129 c0 -5 5 -7 10 -4 6 3 10 8 10 11 0 2 -4 4 -10 4 -5 0 -10
-5 -10 -11z"/>
<path d="M1467 4123 c-12 -11 -8 -21 12 -26 14 -3 17 0 14 14 -5 20 -15 24
-26 12z"/>
<path d="M550 4080 c0 -5 5 -10 10 -10 6 0 10 5 10 10 0 6 -4 10 -10 10 -5 0
-10 -4 -10 -10z"/>
<path d="M1206 3986 c10 -8 21 -12 24 -10 5 6 -21 24 -34 24 -6 0 -1 -6 10
-14z"/>
<path d="M1647 3993 c-14 -13 -7 -33 16 -44 22 -12 22 -12 3 10 -11 11 -14 21
-8 21 7 0 12 5 12 10 0 11 -13 13 -23 3z"/>
<path d="M1714 3984 c3 -9 6 -24 6 -35 0 -10 5 -19 10 -19 6 0 10 16 10 35 0
25 -4 35 -16 35 -11 0 -14 -5 -10 -16z"/>
<path d="M1875 3990 c-3 -5 -2 -10 4 -10 5 0 13 5 16 10 3 6 2 10 -4 10 -5 0
-13 -4 -16 -10z"/>
<path d="M873 3960 c2 -26 7 -36 22 -38 18 -4 19 -3 3 10 -9 7 -19 24 -21 38
-3 16 -5 13 -4 -10z"/>
<path d="M1770 3960 c0 -25 3 -31 10 -20 8 12 10 12 16 -3 6 -17 8 -17 25 2
11 11 19 28 19 38 -1 16 -2 16 -12 -2 -17 -31 -18 -31 -38 -5 l-20 25 0 -35z"/>
<path d="M1260 3950 c0 -23 5 -30 19 -30 36 0 35 40 -1 53 -15 5 -18 1 -18
-23z m32 -5 c0 -5 -5 -11 -11 -13 -6 -2 -11 4 -11 13 0 9 5 15 11 13 6 -2 11
-8 11 -13z"/>
<path d="M1471 3953 c0 -25 1 -26 9 -8 12 27 12 35 0 35 -5 0 -10 -12 -9 -27z"/>
<path d="M1910 3972 c0 -7 -9 -12 -20 -12 -11 0 -20 -4 -20 -9 0 -11 38 -2 46
11 3 5 3 12 0 15 -3 4 -6 1 -6 -5z"/>
<path d="M932 3948 c2 -13 11 -24 21 -26 20 -4 34 25 19 40 -7 7 -10 5 -9 -7
1 -10 -4 -20 -12 -23 -10 -3 -12 1 -8 17 3 11 1 21 -5 21 -5 0 -8 -10 -6 -22z"/>
<path d="M995 3959 c-4 -6 -5 -12 -2 -15 2 -3 7 2 10 11 7 17 1 20 -8 4z"/>
<path d="M1078 3944 c3 -15 8 -22 14 -16 9 9 1 42 -12 42 -4 0 -5 -12 -2 -26z"/>
<path d="M1350 3951 c0 -11 4 -22 9 -25 5 -4 7 3 4 14 -4 16 -2 19 11 14 9 -3
16 -1 16 5 0 6 -9 11 -20 11 -13 0 -20 -7 -20 -19z"/>
<path d="M1406 3961 c-10 -15 5 -41 23 -40 10 0 11 2 4 6 -7 2 -13 11 -13 18
0 7 6 16 13 18 7 3 6 6 -5 6 -9 1 -19 -3 -22 -8z"/>
<path d="M1510 3959 c0 -5 5 -7 10 -4 6 3 10 8 10 11 0 2 -4 4 -10 4 -5 0 -10
-5 -10 -11z"/>
<path d="M1172 3938 c6 -18 50 -17 55 2 4 13 3 13 -6 0 -9 -13 -14 -13 -32 -2
-18 11 -20 11 -17 0z"/>
<path d="M1055 3930 c3 -5 8 -10 11 -10 2 0 4 5 4 10 0 6 -5 10 -11 10 -5 0
-7 -4 -4 -10z"/>
<path d="M1520 3930 c-13 -8 -13 -10 2 -10 9 0 20 5 23 10 8 13 -5 13 -25 0z"/>
<path d="M1601 3924 c0 -11 3 -14 6 -6 3 7 2 16 -1 19 -3 4 -6 -2 -5 -13z"/>
<path d="M1648 3923 c7 -3 16 -2 19 1 4 3 -2 6 -13 5 -11 0 -14 -3 -6 -6z"/>
<path d="M777 3824 c-8 -8 1 -24 14 -24 5 0 9 7 9 15 0 15 -12 20 -23 9z"/>
<path d="M877 3823 c-4 -3 -7 -20 -7 -37 0 -23 3 -27 9 -16 6 8 7 18 4 24 -3
5 2 15 12 23 15 10 16 13 4 13 -9 0 -19 -3 -22 -7z"/>
<path d="M1310 3793 c0 -21 4 -33 8 -27 4 6 15 13 25 17 25 9 17 41 -11 45
-19 3 -22 -1 -22 -35z m38 9 c2 -7 -3 -12 -12 -12 -9 0 -16 7 -16 16 0 17 22
14 28 -4z"/>
<path d="M1175 3811 c-3 -5 -1 -12 5 -16 5 -3 10 1 10 9 0 18 -6 21 -15 7z"/>
<path d="M949 3802 c11 -8 11 -10 0 -15 -11 -4 -11 -6 -1 -6 7 -1 11 -5 7 -11
-3 -5 -13 -7 -23 -4 -14 5 -14 4 -3 -4 8 -6 20 -8 28 -5 18 7 13 45 -7 50 -12
4 -12 3 -1 -5z"/>
<path d="M1047 3803 c-12 -11 -8 -41 6 -45 16 -7 37 1 37 14 0 7 -5 7 -13 -1
-15 -12 -27 -5 -27 17 0 8 6 12 15 8 8 -3 15 -1 15 4 0 11 -23 13 -33 3z"/>
<path d="M1110 3799 c0 -5 5 -7 10 -4 6 3 10 8 10 11 0 2 -4 4 -10 4 -5 0 -10
-5 -10 -11z"/>
<path d="M1217 3803 c-13 -13 -7 -41 11 -48 13 -5 14 -3 5 6 -6 6 -9 18 -6 26
5 12 7 12 14 2 4 -8 11 -10 14 -7 4 4 4 11 0 17 -7 12 -28 14 -38 4z"/>
<path d="M1396 3785 c5 -26 3 -27 -12 -14 -15 12 -17 12 -12 -1 2 -8 11 -15
19 -15 17 0 25 33 10 48 -7 7 -9 2 -5 -18z"/>
<path d="M1436 3801 c-4 -5 3 -7 14 -4 23 6 26 13 6 13 -8 0 -17 -4 -20 -9z"/>
<path d="M1569 3802 c11 -8 11 -10 0 -15 -11 -4 -11 -6 -1 -6 7 -1 11 -5 7
-11 -3 -5 -13 -7 -23 -4 -14 5 -14 4 -3 -4 8 -6 20 -8 28 -5 18 7 13 45 -7 50
-12 4 -12 3 -1 -5z"/>
<path d="M1617 3803 c-14 -13 -7 -42 12 -52 15 -9 20 -7 25 12 3 12 1 26 -3
30 -5 5 -8 3 -8 -4 1 -8 -2 -14 -8 -14 -5 0 -10 8 -9 18 1 19 0 20 -9 10z"/>
<path d="M1680 3795 c-11 -13 -10 -19 5 -33 10 -9 14 -11 10 -3 -4 8 -2 17 6
22 10 6 11 11 3 19 -8 8 -15 6 -24 -5z"/>
<path d="M1735 3800 c-3 -6 0 -13 9 -16 9 -3 12 -12 9 -22 -5 -14 -3 -15 7 -5
10 9 10 15 2 26 -7 8 -9 17 -5 20 3 4 1 7 -5 7 -6 0 -14 -5 -17 -10z"/>
<path d="M1503 3793 c-20 -7 -15 -29 6 -29 12 0 17 6 13 18 -2 10 -5 18 -6 17
0 0 -7 -3 -13 -6z"/>
<path d="M997 3774 c6 -15 23 -19 23 -5 0 5 -7 11 -14 14 -10 4 -13 1 -9 -9z"/>
<path d="M1430 3777 c0 -2 6 -10 14 -16 11 -9 16 -9 22 1 4 7 4 10 -1 6 -4 -4
-14 -3 -22 3 -7 6 -13 9 -13 6z"/>
<path d="M1034 3655 c-4 -8 -1 -22 6 -30 6 -8 9 -19 5 -25 -3 -5 1 -10 9 -10
21 0 30 18 17 34 -6 7 -9 21 -5 30 4 11 1 16 -10 16 -9 0 -19 -7 -22 -15z"/>
<path d="M1410 3656 c-6 -8 -10 -25 -8 -38 2 -17 10 -23 28 -23 18 0 26 6 28
23 3 22 -13 52 -28 52 -4 0 -13 -7 -20 -14z m37 -22 c8 -22 -15 -44 -26 -25
-10 16 -4 41 10 41 5 0 12 -7 16 -16z"/>
<path d="M1093 3630 c0 -23 4 -29 15 -25 8 3 21 0 30 -7 13 -11 14 -10 4 9 -7
12 -9 30 -5 40 6 16 5 16 -10 4 -11 -9 -17 -10 -17 -2 0 6 -4 11 -8 11 -5 0
-9 -14 -9 -30z"/>
<path d="M1200 3629 c0 -18 4 -28 10 -24 6 4 16 2 23 -3 9 -8 12 -1 14 24 1
30 -1 34 -23 34 -20 0 -24 -5 -24 -31z m30 11 c0 -5 -4 -10 -10 -10 -5 0 -10
5 -10 10 0 6 5 10 10 10 6 0 10 -4 10 -10z"/>
<path d="M1271 3625 c0 -28 2 -36 8 -26 8 13 12 13 27 0 16 -13 16 -12 6 8 -7
12 -9 30 -5 40 6 15 4 16 -9 5 -13 -10 -17 -10 -21 0 -3 7 -6 -5 -6 -27z"/>
<path d="M1616 3645 c-9 -26 -7 -47 4 -40 6 4 18 1 27 -7 14 -11 14 -8 -2 22
-22 45 -21 44 -29 25z"/>
<path d="M1645 3650 c-3 -5 -1 -10 4 -10 6 0 11 5 11 10 0 6 -2 10 -4 10 -3 0
-8 -4 -11 -10z"/>
<path d="M1750 3641 c0 -11 -3 -26 -6 -34 -4 -12 0 -14 14 -10 28 7 34 37 11
52 -16 9 -19 8 -19 -8z"/>
<path d="M1926 3638 c-8 -32 -7 -55 2 -43 4 6 16 15 27 21 30 17 32 44 2 44
-17 0 -27 -7 -31 -22z m34 2 c0 -5 -4 -10 -10 -10 -5 0 -10 5 -10 10 0 6 5 10
10 10 6 0 10 -4 10 -10z"/>
<path d="M2106 3637 c-8 -32 -8 -34 13 -40 15 -4 19 0 18 17 -1 11 -7 26 -13
33 -9 10 -13 7 -18 -10z"/>
<path d="M1172 3630 c0 -14 2 -19 5 -12 2 6 2 18 0 25 -3 6 -5 1 -5 -13z"/>
<path d="M1366 3635 c-3 -8 -1 -25 4 -37 8 -20 9 -18 9 15 1 39 -3 47 -13 22z"/>
<path d="M1483 3615 c0 -22 2 -30 4 -17 2 12 2 30 0 40 -3 9 -5 -1 -4 -23z"/>
<path d="M1711 3632 c-13 -25 -14 -32 -2 -32 9 0 23 41 16 48 -2 2 -8 -5 -14
-16z"/>
<path d="M1834 3639 c-4 -7 1 -16 11 -21 14 -8 15 -12 4 -19 -11 -7 -10 -9 4
-9 9 0 17 7 17 15 0 8 -4 15 -10 15 -5 0 -7 7 -4 15 7 17 -11 20 -22 4z"/>
<path d="M2007 3625 c3 -15 1 -25 -6 -25 -7 0 -9 5 -5 12 5 7 3 8 -5 3 -18
-10 3 -29 24 -21 18 7 17 47 -1 53 -7 2 -10 -6 -7 -22z"/>
<path d="M2050 3635 c-16 -19 -6 -45 17 -45 15 0 16 2 3 10 -12 8 -13 13 -2
30 14 23 1 27 -18 5z"/>
<path d="M2184 3625 c5 -26 -8 -35 -17 -12 -3 7 -6 5 -6 -5 -1 -12 6 -18 19
-18 16 0 20 7 20 30 0 17 -5 30 -10 30 -6 0 -8 -11 -6 -25z"/>
<path d="M2227 3643 c-11 -17 -4 -73 8 -73 20 0 37 27 33 52 -3 23 -31 37 -41
21z m25 -35 c-15 -15 -26 -4 -18 18 5 13 9 15 18 6 9 -9 9 -15 0 -24z"/>
<path d="M2290 3635 c-16 -19 -6 -45 17 -44 11 0 13 3 6 6 -15 5 -18 33 -4 33
5 0 12 -6 15 -12 3 -7 5 -4 3 6 -3 25 -21 31 -37 11z"/>
<path d="M923 3605 c0 -22 2 -30 4 -17 2 12 2 30 0 40 -3 9 -5 -1 -4 -23z"/>
<path d="M871 3614 c0 -11 3 -14 6 -6 3 7 2 16 -1 19 -3 4 -6 -2 -5 -13z"/>
<path d="M1681 3614 c0 -11 3 -14 6 -6 3 7 2 16 -1 19 -3 4 -6 -2 -5 -13z"/>
<path d="M4078 3598 c-37 -31 -20 -88 27 -88 51 0 73 56 33 84 -27 19 -39 20
-60 4z m60 -40 c-2 -27 -8 -34 -30 -36 -22 -3 -29 2 -34 22 -8 34 2 46 37 46
28 0 30 -2 27 -32z"/>
<path d="M880 3489 c-13 -8 -12 -12 8 -26 27 -19 28 -30 5 -36 -17 -4 -17 -5
0 -6 26 -2 34 29 11 46 -16 12 -17 15 -4 23 8 5 11 10 5 10 -5 0 -17 -5 -25
-11z"/>
<path d="M723 3483 c9 -2 23 -2 30 0 6 3 -1 5 -18 5 -16 0 -22 -2 -12 -5z"/>
<path d="M1280 3461 c0 -17 4 -32 8 -35 4 -2 6 11 4 30 -5 42 -12 45 -12 5z"/>
<path d="M941 3470 c1 -8 4 -26 8 -40 5 -18 8 -21 12 -10 3 8 0 26 -8 40 -7
14 -12 18 -12 10z"/>
<path d="M1000 3469 c0 -5 5 -7 10 -4 6 3 10 8 10 11 0 2 -4 4 -10 4 -5 0 -10
-5 -10 -11z"/>
<path d="M1051 3473 c0 -5 4 -17 9 -28 8 -18 9 -17 9 8 1 15 -3 27 -9 27 -5 0
-10 -3 -9 -7z"/>
<path d="M1091 3466 c-7 -9 -8 -17 -3 -20 6 -3 13 1 16 10 3 8 10 12 16 9 5
-3 10 -1 10 4 0 16 -26 13 -39 -3z"/>
<path d="M1157 3474 c-4 -4 -7 -17 -6 -28 0 -19 1 -18 11 4 9 23 11 24 17 6 7
-17 8 -18 14 -3 9 23 25 21 30 -3 4 -17 4 -16 3 2 -1 18 -8 24 -31 26 -17 2
-34 0 -38 -4z"/>
<path d="M1371 3453 c2 -24 2 -25 6 -5 2 12 9 22 15 22 6 0 8 -12 5 -27 -5
-26 -4 -26 9 -9 10 14 11 23 3 33 -20 23 -39 15 -38 -14z"/>
<path d="M1430 3470 c0 -5 5 -10 10 -10 6 0 10 5 10 10 0 6 -4 10 -10 10 -5 0
-10 -4 -10 -10z"/>
<path d="M1489 3471 c8 -5 12 -18 8 -30 -3 -12 -1 -19 4 -15 17 10 10 54 -8
54 -14 0 -15 -2 -4 -9z"/>
<path d="M1530 3455 c0 -14 2 -25 4 -25 2 0 6 11 8 25 3 14 1 25 -3 25 -5 0
-9 -11 -9 -25z"/>
<path d="M1594 3456 c-10 -11 -15 -46 -7 -46 5 0 24 52 21 55 -2 2 -8 -2 -14
-9z"/>
<path d="M710 3438 c0 -14 8 -18 38 -17 l37 2 -35 7 -35 7 33 2 c43 1 41 17
-3 17 -27 0 -35 -4 -35 -18z"/>
<path d="M1013 3435 c0 -8 4 -12 9 -9 4 3 8 9 8 15 0 5 -4 9 -8 9 -5 0 -9 -7
-9 -15z"/>
<path d="M4433 3340 c-40 -16 -25 -80 18 -80 20 0 35 18 24 28 -3 3 -10 0 -14
-7 -12 -19 -31 -4 -31 25 0 21 9 29 33 25 4 0 7 4 7 9 0 12 -7 12 -37 0z"/>
<path d="M5000 3340 c0 -6 -12 -15 -26 -20 -36 -14 -30 -54 9 -58 26 -3 27 -2
27 42 0 25 -2 46 -5 46 -3 0 -5 -5 -5 -10z m-10 -45 c0 -8 -4 -15 -10 -15 -5
0 -10 7 -10 15 0 8 5 15 10 15 6 0 10 -7 10 -15z"/>
<path d="M4071 3309 c-14 -41 -14 -44 4 -29 13 10 19 10 35 -5 24 -22 26 -6 5
35 -20 38 -30 38 -44 -1z"/>
<path d="M4144 3326 c-3 -8 -4 -25 -2 -38 2 -17 9 -23 28 -23 22 0 25 4 25 35
-1 28 -5 36 -23 38 -13 2 -25 -3 -28 -12z"/>
<path d="M4226 3308 c-15 -38 -13 -46 9 -28 13 11 19 10 35 -5 24 -22 25 -18
5 29 -19 45 -31 45 -49 4z"/>
<path d="M4300 3305 c0 -41 3 -42 37 -11 29 27 24 46 -13 46 -21 0 -24 -5 -24
-35z m40 15 c0 -5 -4 -10 -10 -10 -5 0 -10 5 -10 10 0 6 5 10 10 10 6 0 10 -4
10 -10z"/>
<path d="M4621 3328 c-1 -9 4 -29 10 -45 l11 -28 12 23 12 23 11 -23 11 -23
11 28 c6 16 11 36 10 45 0 11 -4 9 -11 -8 l-10 -25 -10 25 -9 25 -13 -23 -12
-23 -12 23 c-8 17 -11 19 -11 6z"/>
<path d="M4540 3301 c0 -17 5 -33 10 -36 6 -4 10 8 10 29 0 20 -4 36 -10 36
-5 0 -10 -13 -10 -29z"/>
<path d="M4853 3318 c2 -7 -3 -18 -11 -24 -8 -6 -12 -16 -8 -22 7 -12 38 -16
48 -7 10 10 -4 54 -19 59 -9 4 -13 1 -10 -6z"/>
<path d="M4500 3295 c0 -14 5 -25 10 -25 6 0 10 11 10 25 0 14 -4 25 -10 25
-5 0 -10 -11 -10 -25z"/>
<path d="M4730 3289 c0 -18 3 -29 7 -25 11 11 13 45 3 51 -6 4 -10 -7 -10 -26z"/>
<path d="M4774 3295 c-13 -27 -9 -35 19 -35 16 0 17 3 8 14 -8 10 -9 16 -1 21
14 9 13 25 -2 25 -7 0 -18 -11 -24 -25z"/>
<path d="M4900 3295 c0 -32 12 -32 27 0 10 22 9 25 -8 25 -14 0 -19 -7 -19
-25z"/>
<path d="M4260 3093 c0 -21 4 -33 8 -27 4 6 15 13 25 17 9 3 17 16 17 27 0 15
-7 20 -25 20 -22 0 -25 -4 -25 -37z m38 16 c-2 -6 -8 -10 -13 -10 -5 0 -11 4
-13 10 -2 6 4 11 13 11 9 0 15 -5 13 -11z"/>
<path d="M4333 3095 c0 -22 2 -30 4 -17 2 12 2 30 0 40 -3 9 -5 -1 -4 -23z"/>
<path d="M6256 3122 c-3 -5 -1 -22 4 -38 8 -29 8 -29 9 9 1 36 -3 45 -13 29z"/>
<path d="M6491 3112 c-7 -13 -10 -28 -7 -35 2 -7 5 -4 5 6 1 24 18 21 24 -5 4
-12 9 -19 12 -16 3 3 0 21 -8 39 -14 34 -14 34 -26 11z"/>
<path d="M6550 3095 c0 -32 3 -36 23 -33 17 2 22 10 22 33 0 23 -5 31 -22 33
-20 3 -23 -1 -23 -33z m30 16 c0 -5 3 -16 6 -25 4 -11 1 -16 -10 -16 -10 0
-16 9 -16 25 0 14 5 25 10 25 6 0 10 -4 10 -9z"/>
<path d="M6640 3120 c0 -5 5 -10 11 -10 5 0 7 5 4 10 -3 6 -8 10 -11 10 -2 0
-4 -4 -4 -10z"/>
<path d="M6697 3124 c-4 -4 -7 -20 -7 -36 0 -28 0 -28 25 -12 14 9 25 24 23
33 -3 17 -29 26 -41 15z m33 -19 c0 -8 -4 -15 -9 -15 -13 0 -22 16 -14 24 11
11 23 6 23 -9z"/>
<path d="M5130 3096 c0 -36 17 -41 18 -6 0 17 -4 30 -9 30 -5 0 -9 -11 -9 -24z"/>
<path d="M5515 3111 c-3 -5 -1 -12 5 -16 5 -3 10 1 10 9 0 18 -6 21 -15 7z"/>
<path d="M5852 3090 c0 -19 2 -27 5 -17 2 9 2 25 0 35 -3 9 -5 1 -5 -18z"/>
<path d="M6046 3107 c-16 -12 -16 -13 3 -13 12 0 21 6 21 13 0 7 -1 13 -3 13
-2 0 -11 -6 -21 -13z"/>
<path d="M6148 3113 c-18 -5 -31 -30 -22 -44 3 -5 14 -9 25 -9 14 0 19 7 19
30 0 17 -1 29 -2 29 -2 -1 -10 -3 -20 -6z m12 -28 c0 -8 -7 -15 -15 -15 -16 0
-20 12 -8 23 11 12 23 8 23 -8z"/>
<path d="M4367 3103 c-14 -14 -7 -43 11 -42 10 0 12 3 5 6 -15 5 -18 33 -4 33
5 0 12 -6 14 -12 3 -8 6 -6 6 5 1 17 -19 23 -32 10z"/>
<path d="M4440 3090 c11 -20 10 -22 -4 -17 -9 4 -16 2 -16 -3 0 -6 9 -10 21
-10 15 0 20 5 17 22 -2 12 -9 23 -16 26 -11 3 -12 0 -2 -18z"/>
<path d="M4560 3101 c0 -5 5 -13 10 -16 6 -3 10 -2 10 4 0 5 -4 13 -10 16 -5
3 -10 2 -10 -4z"/>
<path d="M4631 3083 c-1 -36 6 -40 34 -19 19 14 15 46 -7 46 -9 0 -9 -3 0 -12
16 -16 15 -28 -2 -28 -8 0 -17 10 -19 23 -3 16 -5 13 -6 -10z"/>
<path d="M4695 3100 c-3 -5 -1 -10 4 -10 6 0 11 5 11 10 0 6 -2 10 -4 10 -3 0
-8 -4 -11 -10z"/>
<path d="M4734 3095 c-11 -27 25 -50 40 -26 4 5 -3 7 -14 4 -14 -4 -20 0 -20
10 0 9 8 18 18 20 16 4 16 5 -1 6 -10 0 -20 -6 -23 -14z"/>
<path d="M4886 3102 c-2 -4 4 -8 15 -8 10 0 19 4 19 8 0 4 -6 8 -14 8 -8 0
-17 -4 -20 -8z"/>
<path d="M4946 3094 c-7 -19 1 -34 17 -33 9 0 9 2 0 6 -9 3 -10 10 -3 24 6 11
7 19 1 19 -5 0 -12 -7 -15 -16z"/>
<path d="M5200 3099 c0 -5 5 -7 10 -4 6 3 10 8 10 11 0 2 -4 4 -10 4 -5 0 -10
-5 -10 -11z"/>
<path d="M5271 3094 c0 -11 3 -14 6 -6 3 7 2 16 -1 19 -3 4 -6 -2 -5 -13z"/>
<path d="M5300 3073 c0 -20 3 -33 8 -29 4 4 7 21 7 37 0 16 -3 29 -7 29 -5 0
-8 -16 -8 -37z"/>
<path d="M5335 3085 c0 -13 3 -21 8 -18 4 2 7 10 7 18 0 8 -3 16 -7 18 -5 3
-8 -5 -8 -18z"/>
<path d="M5375 3100 c-3 -6 1 -7 9 -4 11 4 16 0 16 -11 0 -11 -5 -15 -15 -11
-8 3 -15 1 -15 -4 0 -13 37 -13 45 0 7 11 -12 40 -26 40 -4 0 -11 -4 -14 -10z"/>
<path d="M5441 3094 c0 -11 3 -14 6 -6 3 7 2 16 -1 19 -3 4 -6 -2 -5 -13z"/>
<path d="M5554 3096 c-8 -21 3 -36 27 -36 15 0 20 6 17 22 -4 27 -35 37 -44
14z m36 -11 c0 -8 -7 -15 -15 -15 -8 0 -15 7 -15 15 0 8 7 15 15 15 8 0 15 -7
15 -15z"/>
<path d="M5810 3099 c0 -5 5 -7 10 -4 6 3 10 8 10 11 0 2 -4 4 -10 4 -5 0 -10
-5 -10 -11z"/>
<path d="M5933 3089 c4 -15 2 -19 -9 -15 -8 3 -14 1 -14 -4 0 -6 9 -10 20 -10
15 0 20 7 20 25 0 14 -5 25 -11 25 -7 0 -9 -9 -6 -21z"/>
<path d="M5971 3083 c1 -22 2 -23 6 -8 3 11 10 23 17 27 7 5 5 8 -6 8 -13 0
-18 -7 -17 -27z"/>
<path d="M6196 3095 c-7 -18 0 -35 14 -35 4 0 6 9 3 20 -5 20 11 28 20 10 3
-6 4 -5 3 2 -4 20 -33 21 -40 3z"/>
<path d="M6326 3101 c-4 -5 3 -7 14 -4 23 6 26 13 6 13 -8 0 -17 -4 -20 -9z"/>
<path d="M6391 3101 c-8 -5 -11 -16 -8 -25 9 -23 26 -20 20 4 -4 16 -2 19 12
13 13 -4 16 -3 11 5 -9 14 -16 15 -35 3z"/>
<path d="M6790 3080 c0 -16 4 -30 9 -30 4 0 8 13 7 30 -1 39 -16 39 -16 0z"/>
<path d="M6825 3085 c0 -13 3 -21 8 -18 4 2 7 10 7 18 0 8 -3 16 -7 18 -5 3
-8 -5 -8 -18z"/>
<path d="M6880 3086 c0 -14 5 -26 10 -26 6 0 10 9 10 19 0 11 -4 23 -10 26 -6
4 -10 -5 -10 -19z"/>
<path d="M6925 3100 c-3 -6 1 -7 9 -4 18 7 21 14 7 14 -6 0 -13 -4 -16 -10z"/>
<path d="M7055 3089 c3 -15 0 -19 -10 -15 -8 3 -15 1 -15 -4 0 -6 9 -10 20
-10 15 0 20 7 20 25 0 14 -4 25 -9 25 -6 0 -8 -9 -6 -21z"/>
<path d="M7093 3094 c-3 -8 -2 -19 3 -24 5 -5 9 1 9 16 0 28 -3 30 -12 8z"/>
<path d="M7133 3075 c0 -22 2 -30 4 -17 2 12 2 30 0 40 -3 9 -5 -1 -4 -23z"/>
<path d="M7167 3103 c-10 -10 -8 -43 2 -43 5 0 7 10 3 22 -4 17 -2 20 11 15
10 -4 17 -2 17 3 0 11 -23 13 -33 3z"/>
<path d="M4031 3084 c0 -11 3 -14 6 -6 3 7 2 16 -1 19 -3 4 -6 -2 -5 -13z"/>
<path d="M4489 3087 c6 -8 8 -17 4 -20 -3 -4 1 -7 10 -7 21 0 21 7 3 26 -18
18 -32 19 -17 1z"/>
<path d="M4536 3091 c-5 -7 -3 -18 3 -24 14 -14 20 -6 11 17 -5 15 -9 16 -14
7z"/>
<path d="M5041 3083 c0 -13 7 -27 18 -32 15 -9 20 -7 25 12 3 12 1 26 -5 32
-7 7 -9 6 -7 -4 5 -21 -20 -25 -25 -4 -4 14 -5 14 -6 -4z"/>
<path d="M5240 3080 c0 -13 6 -20 18 -19 9 0 12 3 5 5 -7 3 -9 12 -6 20 3 8 0
14 -6 14 -6 0 -11 -9 -11 -20z"/>
<path d="M5742 3083 c2 -9 8 -18 15 -20 7 -3 9 3 6 16 -6 25 -26 28 -21 4z"/>
<path d="M5782 3080 c0 -14 2 -19 5 -12 2 6 2 18 0 25 -3 6 -5 1 -5 -13z"/>
<path d="M6627 3094 c-4 -4 -7 -14 -7 -23 0 -11 3 -12 11 -4 6 6 10 16 7 23
-2 6 -7 8 -11 4z"/>
<path d="M6650 3093 c0 -4 5 -15 10 -23 8 -13 10 -13 10 2 0 9 -4 20 -10 23
-5 3 -10 3 -10 -2z"/>
<path d="M6980 3090 c0 -5 10 -15 23 -21 19 -11 20 -10 10 3 -7 8 -10 18 -6
21 3 4 -1 7 -10 7 -9 0 -17 -4 -17 -10z"/>
<path d="M4090 3071 c0 -12 5 -21 10 -21 6 0 10 6 10 14 0 8 -4 18 -10 21 -5
3 -10 -3 -10 -14z"/>
<path d="M4817 3083 c-4 -3 -7 -11 -7 -17 0 -6 5 -5 12 2 6 6 9 14 7 17 -3 3
-9 2 -12 -2z"/>
<path d="M4880 3068 c0 -4 9 -8 20 -8 11 0 20 4 20 8 0 4 -9 8 -20 8 -11 0
-20 -4 -20 -8z"/>
<path d="M5455 3070 c-3 -5 -1 -10 4 -10 6 0 11 5 11 10 0 6 -2 10 -4 10 -3 0
-8 -4 -11 -10z"/>
<path d="M5670 3058 c0 -19 2 -20 10 -8 13 19 13 30 0 30 -5 0 -10 -10 -10
-22z"/>
<path d="M6050 3070 c-13 -8 -12 -10 3 -10 9 0 17 5 17 10 0 12 -1 12 -20 0z"/>
<path d="M6920 3070 c0 -6 7 -10 15 -10 8 0 15 2 15 4 0 2 -7 6 -15 10 -8 3
-15 1 -15 -4z"/>
<path d="M4060 2686 c-17 -21 -9 -60 14 -64 26 -5 44 15 27 31 -11 10 -13 9
-8 -6 5 -14 3 -18 -11 -15 -9 2 -18 13 -20 26 -3 21 5 26 38 23 13 -2 13 -1 0
8 -20 14 -25 14 -40 -3z"/>
<path d="M5987 2683 c-4 -3 -7 -20 -7 -37 0 -17 4 -26 8 -20 4 6 15 13 25 17
19 7 22 22 7 32 -5 3 -10 -1 -10 -9 0 -9 -5 -16 -11 -16 -6 0 -9 9 -6 20 5 21
4 24 -6 13z"/>
<path d="M6102 2678 c-24 -24 -6 -69 28 -67 9 0 6 4 -7 9 -13 5 -23 16 -23 23
0 18 24 39 33 30 4 -3 7 -1 7 5 0 16 -23 15 -38 0z"/>
<path d="M6453 2683 c-7 -3 -13 -18 -13 -34 0 -19 4 -28 10 -24 6 4 10 14 8
23 -1 10 2 17 7 17 6 0 9 -6 9 -12 -1 -7 2 -10 7 -7 24 15 0 47 -28 37z"/>
<path d="M4158 2650 c2 -16 7 -30 11 -30 3 0 6 14 6 30 0 17 -5 30 -11 30 -6
0 -9 -13 -6 -30z"/>
<path d="M4224 2665 c-11 -27 2 -37 14 -11 7 16 8 26 1 26 -5 0 -12 -7 -15
-15z"/>
<path d="M4272 2671 c-18 -11 -11 -45 8 -47 8 0 10 1 4 3 -7 2 -10 13 -7 24 5
16 8 17 21 7 13 -11 14 -10 11 1 -7 19 -20 23 -37 12z"/>
<path d="M4332 2668 c-7 -7 -12 -22 -12 -34 0 -17 5 -20 24 -17 14 3 27 12 31
20 5 13 3 14 -10 3 -11 -9 -19 -10 -27 -2 -14 14 0 35 19 28 8 -3 11 -1 8 4
-8 13 -18 13 -33 -2z"/>
<path d="M4394 2665 c-9 -23 4 -47 23 -43 10 2 19 13 19 26 1 19 1 19 -3 2 -2
-11 -11 -20 -19 -20 -17 0 -19 36 -1 43 9 4 9 6 -1 6 -7 1 -15 -6 -18 -14z"/>
<path d="M4460 2666 c0 -8 5 -18 11 -22 8 -4 7 -9 -2 -15 -11 -7 -10 -9 3 -9
23 0 33 19 13 26 -9 4 -14 13 -11 20 3 8 1 14 -4 14 -6 0 -10 -6 -10 -14z"/>
<path d="M4540 2656 c0 -14 4 -27 8 -30 5 -3 9 8 9 24 0 17 -4 30 -9 30 -4 0
-8 -11 -8 -24z"/>
<path d="M4580 2665 c-17 -20 -6 -45 20 -45 17 0 21 5 18 27 -4 31 -20 40 -38
18z m30 -15 c0 -11 -4 -20 -9 -20 -14 0 -23 18 -16 30 10 17 25 11 25 -10z"/>
<path d="M4647 2673 c-4 -3 -7 -18 -6 -32 1 -26 1 -25 10 3 9 31 7 41 -4 29z"/>
<path d="M5911 2648 c-6 -17 -9 -34 -6 -36 3 -3 5 0 5 7 0 9 9 12 24 9 17 -3
23 -1 19 8 -2 7 -11 10 -19 7 -8 -3 -14 -1 -14 5 0 6 5 12 12 14 9 3 9 6 1 11
-7 4 -15 -6 -22 -25z"/>
<path d="M6172 2650 c0 -19 2 -27 5 -17 2 9 2 25 0 35 -3 9 -5 1 -5 -18z"/>
<path d="M6512 2650 c0 -19 2 -27 5 -17 2 9 2 25 0 35 -3 9 -5 1 -5 -18z"/>
<path d="M6635 2669 c-10 -15 3 -25 16 -12 7 7 7 13 1 17 -6 3 -14 1 -17 -5z"/>
<path d="M6912 2648 c2 -25 8 -33 23 -33 15 0 21 8 23 33 2 17 -1 32 -7 32 -5
0 -8 -13 -6 -30 3 -21 0 -30 -10 -30 -10 0 -13 9 -10 30 2 17 -1 30 -6 30 -6
0 -9 -15 -7 -32z"/>
<path d="M7131 2655 c-1 -24 3 -31 18 -31 12 0 17 6 13 18 -2 10 -8 16 -12 13
-5 -3 -11 3 -13 12 -3 10 -5 5 -6 -12z"/>
<path d="M4684 2657 c3 -10 6 -28 6 -40 0 -25 15 -13 25 22 5 17 4 21 -5 16
-7 -4 -17 -1 -22 6 -8 11 -8 10 -4 -4z"/>
<path d="M4855 2659 c-11 -17 1 -21 15 -4 8 9 8 15 2 15 -6 0 -14 -5 -17 -11z"/>
<path d="M4920 2640 c0 -16 2 -30 4 -30 2 0 6 14 8 30 3 17 1 30 -4 30 -4 0
-8 -13 -8 -30z"/>
<path d="M4958 2640 c2 -16 6 -30 8 -30 2 0 4 14 4 30 0 17 -4 30 -8 30 -5 0
-7 -13 -4 -30z"/>
<path d="M4997 2663 c-10 -9 -9 -63 1 -63 5 0 17 6 28 14 19 14 19 14 -1 13
-12 -1 -20 4 -20 13 0 9 7 14 19 12 11 -2 15 1 11 7 -7 12 -28 14 -38 4z"/>
<path d="M5065 2660 c-3 -5 -2 -10 4 -10 5 0 13 5 16 10 3 6 2 10 -4 10 -5 0
-13 -4 -16 -10z"/>
<path d="M5233 2663 c-15 -5 -18 -43 -4 -43 5 0 8 7 7 16 0 9 5 19 12 21 19 7
15 -38 -5 -54 -17 -13 -17 -14 2 -11 15 3 20 11 20 37 0 34 -9 44 -32 34z"/>
<path d="M5322 2645 c0 -16 2 -22 5 -12 2 9 2 23 0 30 -3 6 -5 -1 -5 -18z"/>
<path d="M5360 2648 c1 -21 2 -21 11 -5 6 9 15 14 21 11 7 -4 8 -2 4 4 -12 21
-36 13 -36 -10z"/>
<path d="M5480 2646 c0 -14 4 -26 9 -26 5 0 8 6 7 13 0 6 4 12 9 12 6 0 10 -8
9 -18 0 -11 3 -14 9 -8 15 15 3 46 -21 49 -18 3 -22 -1 -22 -22z"/>
<path d="M5580 2655 c-10 -12 -10 -18 0 -30 7 -8 17 -15 23 -15 6 0 2 7 -9 15
-19 15 -19 15 0 30 11 8 15 15 9 15 -6 0 -16 -7 -23 -15z"/>
<path d="M5647 2663 c-4 -3 -7 -11 -7 -17 0 -6 5 -4 10 4 7 11 12 12 21 3 15
-15 1 -36 -20 -28 -13 5 -14 4 -3 -6 10 -11 15 -10 29 3 13 14 14 20 3 32 -14
17 -23 20 -33 9z"/>
<path d="M5704 2659 c-3 -5 2 -9 10 -9 8 0 16 -8 19 -17 3 -15 6 -14 15 7 6
14 11 19 11 12 1 -7 6 -10 12 -7 6 4 7 10 4 13 -10 10 -65 11 -71 1z"/>
<path d="M5848 2651 c26 -23 27 -28 7 -34 -11 -4 -10 -4 2 -3 29 2 26 30 -4
43 l-28 13 23 -19z"/>
<path d="M6205 2660 c-3 -5 0 -7 8 -4 19 7 33 -14 19 -28 -8 -8 -16 -7 -29 2
-17 13 -17 13 0 -5 16 -18 18 -18 34 -3 13 14 14 20 3 32 -14 18 -26 20 -35 6z"/>
<path d="M6336 2662 c-2 -4 4 -9 15 -9 10 -1 19 2 19 8 0 11 -27 12 -34 1z"/>
<path d="M6555 2643 c5 -21 4 -24 -4 -13 -9 13 -11 13 -11 -2 0 -12 8 -18 21
-18 16 0 20 5 17 27 -2 14 -9 28 -16 31 -9 3 -11 -4 -7 -25z"/>
<path d="M6600 2645 c0 -14 2 -25 4 -25 2 0 6 11 8 25 3 14 1 25 -3 25 -5 0
-9 -11 -9 -25z"/>
<path d="M6686 2662 c-3 -5 1 -9 9 -9 8 0 12 4 9 9 -3 4 -7 8 -9 8 -2 0 -6 -4
-9 -8z"/>
<path d="M6737 2663 c-4 -3 -7 -16 -6 -27 0 -19 1 -19 10 3 10 24 8 36 -4 24z"/>
<path d="M6786 2663 c-12 -12 -6 -22 9 -17 11 4 15 -1 16 -17 l1 -24 7 25 c5
14 14 24 22 22 8 -2 11 0 7 4 -10 9 -54 14 -62 7z"/>
<path d="M7010 2655 c-11 -13 -11 -19 3 -33 20 -19 41 -5 35 24 -4 24 -22 28
-38 9z m30 -15 c0 -19 -11 -26 -23 -14 -8 8 3 34 14 34 5 0 9 -9 9 -20z"/>
<path d="M7082 2661 c-18 -11 -11 -45 8 -47 9 0 10 1 3 3 -16 6 -17 25 -1 41
14 14 9 15 -10 3z"/>
<path d="M7194 2655 c-8 -20 2 -45 18 -44 10 0 10 2 1 6 -7 2 -13 13 -13 23 0
10 6 21 13 23 9 4 9 6 -1 6 -7 1 -15 -6 -18 -14z"/>
<path d="M4892 2640 c0 -14 2 -19 5 -12 2 6 2 18 0 25 -3 6 -5 1 -5 -13z"/>
<path d="M5292 2640 c0 -14 2 -19 5 -12 2 6 2 18 0 25 -3 6 -5 1 -5 -13z"/>
<path d="M5451 2641 c-1 -18 -5 -22 -18 -16 -15 5 -16 4 -5 -6 16 -17 36 2 29
27 -4 15 -5 14 -6 -5z"/>
<path d="M6260 2641 c0 -11 4 -22 9 -25 4 -3 6 6 3 19 -5 30 -12 33 -12 6z"/>
<path d="M6297 2641 c-4 -17 -3 -21 5 -13 5 5 8 16 6 23 -3 8 -7 3 -11 -10z"/>
<path d="M5084 2632 c3 -5 0 -13 -6 -15 -9 -4 -10 -6 -1 -6 17 -1 25 16 12 25
-7 4 -9 3 -5 -4z"/>
<path d="M6330 2618 c0 -4 6 -8 14 -8 8 0 17 4 20 8 2 4 -4 8 -15 8 -10 0 -19
-4 -19 -8z"/>
<path d="M6678 2618 c5 -5 16 -8 23 -6 8 3 3 7 -10 11 -17 4 -21 3 -13 -5z"/>
<path d="M4050 2423 c0 -21 4 -33 8 -27 4 6 15 13 25 17 25 9 17 41 -11 45
-19 3 -22 -1 -22 -35z m31 14 c-1 -12 -15 -9 -19 4 -3 6 1 10 8 8 6 -3 11 -8
11 -12z"/>
<path d="M4136 2425 c6 -24 5 -27 -11 -21 -15 5 -16 4 -6 -8 7 -8 19 -12 27
-9 19 7 18 37 -2 54 -13 11 -14 9 -8 -16z"/>
<path d="M4181 2436 c-10 -12 -8 -13 8 -9 12 3 18 9 15 14 -7 12 -10 11 -23
-5z"/>
<path d="M4306 2441 c-4 -6 -2 -11 3 -11 6 0 11 -7 11 -16 0 -11 -5 -14 -16
-10 -10 4 -14 1 -12 -6 8 -22 33 -14 36 11 4 27 -12 49 -22 32z"/>
<path d="M4422 2438 c-16 -16 -15 -33 4 -49 13 -11 14 -9 9 14 -7 27 8 39 18
15 4 -8 6 -9 6 -2 2 20 -24 35 -37 22z"/>
<path d="M4867 2443 c-4 -3 0 -17 8 -29 11 -17 12 -24 2 -27 -9 -4 -9 -6 0 -6
18 -1 26 18 13 34 -6 8 -9 19 -5 25 7 11 -8 14 -18 3z"/>
<path d="M4247 2429 c-9 -6 -15 -14 -12 -20 10 -15 22 -10 28 11 3 11 4 20 4
20 -1 0 -10 -5 -20 -11z"/>
<path d="M4350 2418 c0 -32 15 -52 34 -45 10 4 16 18 16 37 0 25 -4 30 -25 30
-19 0 -25 -5 -25 -22z m40 -3 c0 -8 -7 -15 -15 -15 -8 0 -15 7 -15 15 0 8 7
15 15 15 8 0 15 -7 15 -15z"/>
<path d="M4920 2413 c0 -20 3 -23 13 -14 8 6 17 8 21 4 4 -4 4 0 1 9 -11 29
-35 30 -35 1z"/>
<path d="M5100 2414 c0 -8 5 -12 10 -9 6 3 10 10 10 16 0 5 -4 9 -10 9 -5 0
-10 -7 -10 -16z"/>
<path d="M5055 2411 c-3 -5 -1 -12 5 -16 5 -3 10 1 10 9 0 18 -6 21 -15 7z"/>
<path d="M4170 2405 c0 -10 29 -24 34 -17 3 6 -3 12 -14 15 -11 3 -20 4 -20 2z"/>
<path d="M6190 2062 c0 -39 3 -50 13 -46 8 3 20 -2 27 -11 7 -8 17 -15 22 -15
6 0 5 7 -2 15 -9 11 -10 19 -1 28 8 10 2 21 -24 47 l-35 34 0 -52z"/>
<path d="M4203 1613 c-21 -8 -15 -25 7 -18 32 10 43 -4 26 -31 -22 -32 -20
-41 4 -19 41 37 12 88 -37 68z"/>
<path d="M7418 1583 c7 -3 16 -2 19 1 4 3 -2 6 -13 5 -11 0 -14 -3 -6 -6z"/>
<path d="M7390 1556 c0 -14 4 -27 8 -30 5 -3 6 8 4 25 -5 35 -12 38 -12 5z"/>
<path d="M7497 1540 c3 -11 7 -20 9 -20 2 0 4 9 4 20 0 11 -4 20 -9 20 -5 0
-7 -9 -4 -20z"/>
<path d="M7532 1540 c0 -14 2 -19 5 -12 2 6 2 18 0 25 -3 6 -5 1 -5 -13z"/>
<path d="M7650 1549 c0 -5 5 -7 10 -4 6 3 10 8 10 11 0 2 -4 4 -10 4 -5 0 -10
-5 -10 -11z"/>
<path d="M8880 1528 c0 -23 0 -23 -159 -22 -88 1 -165 5 -172 10 -8 5 -10 3
-4 -6 6 -10 1 -12 -18 -8 -15 3 -28 1 -29 -4 -2 -6 -13 -6 -28 0 -14 5 -96 9
-182 8 -134 -1 -158 1 -160 14 -2 8 -6 11 -10 5 -3 -5 -2 -20 3 -32 l8 -23
374 0 c277 0 376 3 385 12 14 14 16 68 2 68 -5 0 -10 -10 -10 -22z"/>
<path d="M2802 1293 c27 -26 28 -26 48 -8 30 27 25 35 -27 35 l-48 0 27 -27z
m45 0 c-16 -16 -18 -16 -34 0 -16 16 -15 17 17 17 32 0 33 -1 17 -17z"/>
<path d="M2965 1309 c-4 -6 -4 -13 0 -17 4 -4 10 -1 12 6 3 6 20 12 38 12 18
0 36 -6 38 -12 3 -8 6 -6 6 5 1 14 -7 17 -43 17 -25 0 -48 -5 -51 -11z"/>
<path d="M3180 1271 l0 -51 45 0 c39 0 45 3 51 24 3 13 4 35 2 47 -3 21 -9 24
-50 27 l-48 3 0 -50z m80 -1 c0 -39 -1 -40 -35 -40 -35 0 -35 0 -33 40 3 38 5
40 36 40 31 0 32 -2 32 -40z"/>
<path d="M1000 1294 c0 -7 5 -16 10 -19 6 -4 8 -11 5 -16 -4 -5 -1 -9 4 -9 14
0 14 13 -1 28 -6 6 -9 15 -5 19 4 4 12 2 19 -5 8 -8 17 -8 31 0 18 9 19 8 13
-18 l-7 -29 16 23 c21 29 15 35 -40 38 -31 1 -45 -3 -45 -12z"/>
<path d="M577 1293 c-13 -12 -7 -50 9 -64 31 -26 70 25 44 56 -13 16 -42 20
-53 8z m42 -17 c14 -17 4 -46 -15 -46 -18 0 -28 24 -20 45 7 19 20 19 35 1z"/>
<path d="M717 1283 c-2 -5 -1 -19 3 -33 l6 -25 6 28 c5 26 -5 47 -15 30z"/>
<path d="M2998 1283 c6 -2 18 -2 25 0 6 3 1 5 -13 5 -14 0 -19 -2 -12 -5z"/>
<path d="M5397 1283 c618 -2 1628 -2 2245 0 618 1 113 2 -1122 2 -1235 0
-1740 -1 -1123 -2z"/>
<path d="M810 1272 c0 -4 9 -8 20 -8 11 0 20 4 20 8 0 4 -9 8 -20 8 -11 0 -20
-4 -20 -8z"/>
<path d="M874 1266 c-8 -21 2 -46 18 -46 9 0 10 3 2 8 -12 7 -15 42 -4 42 3 0
12 -6 19 -12 11 -11 13 -10 9 2 -6 21 -37 25 -44 6z"/>
<path d="M651 1254 c0 -11 3 -14 6 -6 3 7 2 16 -1 19 -3 4 -6 -2 -5 -13z"/>
<path d="M691 1253 c-1 -12 -9 -24 -18 -26 -17 -4 -17 -5 0 -6 19 -1 32 21 24
41 -3 7 -6 3 -6 -9z"/>
<path d="M1000 1231 c0 -6 4 -13 10 -16 6 -3 7 1 4 9 -7 18 -14 21 -14 7z"/>
<path d="M1076 1225 c-3 -8 -1 -15 4 -15 6 0 10 7 10 15 0 8 -2 15 -4 15 -2 0
-6 -7 -10 -15z"/>
<path d="M390 1064 c-6 -14 -10 -26 -10 -27 0 -1 11 -2 25 -2 14 0 25 6 25 14
0 8 -6 11 -16 7 -12 -4 -14 -1 -9 14 9 29 -4 24 -15 -6z"/>
<path d="M1515 1065 c0 -13 4 -27 9 -32 5 -5 6 -3 2 5 -12 20 4 35 22 20 13
-11 14 -11 11 1 -3 8 -14 17 -25 21 -16 7 -20 4 -19 -15z"/>
<path d="M452 1073 c-6 -2 -9 -9 -6 -15 4 -6 10 -5 15 3 8 12 11 11 20 -1 9
-12 10 -12 7 -1 -5 17 -17 22 -36 14z"/>
<path d="M552 1071 c-20 -12 -10 -46 13 -46 14 0 20 7 20 24 0 27 -13 35 -33
22z m28 -27 c0 -8 -7 -14 -15 -14 -15 0 -21 21 -9 33 10 9 24 -2 24 -19z"/>
<path d="M670 1056 c0 -14 3 -27 8 -29 4 -3 7 8 7 24 0 16 -3 29 -7 29 -5 0
-8 -11 -8 -24z"/>
<path d="M765 1071 c-3 -6 4 -9 15 -8 11 1 20 5 20 9 0 11 -28 10 -35 -1z"/>
<path d="M829 1064 c-10 -12 -9 -18 4 -31 15 -15 15 -14 10 7 -5 19 -3 22 10
17 10 -4 17 -2 17 2 0 17 -29 20 -41 5z"/>
<path d="M951 1071 c-8 -6 -9 -11 -3 -15 6 -3 14 -1 17 5 9 14 2 20 -14 10z"/>
<path d="M1037 1073 c-4 -3 -7 -11 -7 -17 0 -6 4 -6 11 1 6 6 18 9 27 6 10 -4
13 -2 8 5 -8 13 -29 16 -39 5z"/>
<path d="M1105 1070 c-3 -6 1 -7 9 -4 18 7 21 14 7 14 -6 0 -13 -4 -16 -10z"/>
<path d="M1161 1053 c0 -25 1 -26 9 -8 12 27 12 35 0 35 -5 0 -10 -12 -9 -27z"/>
<path d="M1251 1062 c7 -12 10 -25 6 -29 -5 -4 -12 -1 -17 7 -8 13 -10 12 -10
-2 0 -12 8 -18 21 -18 16 0 20 5 17 27 -2 14 -9 28 -16 31 -11 3 -11 1 -1 -16z"/>
<path d="M1366 1054 c6 -24 5 -26 -12 -20 -14 5 -16 4 -7 -5 6 -6 16 -8 22 -5
14 9 14 43 1 51 -7 4 -8 -3 -4 -21z"/>
<path d="M1476 1054 c6 -23 4 -26 -10 -21 -10 4 -15 3 -11 -3 3 -6 13 -10 21
-10 16 0 20 45 4 55 -7 4 -8 -3 -4 -21z"/>
<path d="M1614 1066 c-8 -21 2 -46 18 -45 10 0 10 2 1 6 -7 2 -13 12 -13 20 0
10 6 13 16 9 10 -4 14 -1 12 6 -7 19 -27 21 -34 4z"/>
<path d="M600 1060 c0 -17 17 -47 23 -40 2 3 -2 16 -10 30 -7 14 -13 18 -13
10z"/>
<path d="M642 1045 c0 -16 2 -22 5 -12 2 9 2 23 0 30 -3 6 -5 -1 -5 -18z"/>
<path d="M1312 1050 c-7 -11 -8 -20 -3 -20 9 0 24 30 18 36 -1 2 -8 -6 -15
-16z"/>
<path d="M1130 1048 c0 -9 -6 -19 -12 -21 -10 -4 -10 -6 0 -6 14 -1 28 26 18
36 -3 4 -6 -1 -6 -9z"/>
<path d="M962 1035 c-11 -12 -10 -15 3 -15 8 0 15 7 15 15 0 18 -2 18 -18 0z"/>
<path d="M10927 723 c-17 -17 -6 -68 20 -90 31 -27 37 -28 57 -8 8 8 20 15 26
15 16 0 8 83 -8 86 -7 1 -8 0 -2 -3 5 -2 10 -20 10 -39 0 -28 -4 -35 -25 -40
-44 -11 -75 3 -75 34 0 15 5 33 12 40 7 7 8 12 2 12 -6 0 -14 -3 -17 -7z"/>
<path d="M12265 720 c-12 -19 6 -30 51 -30 37 0 44 3 44 20 0 17 -7 20 -44 20
-25 0 -48 -4 -51 -10z m85 -10 c0 -5 -16 -10 -35 -10 -19 0 -35 5 -35 10 0 6
16 10 35 10 19 0 35 -4 35 -10z"/>
<path d="M12487 724 c-4 -4 -7 -27 -7 -51 l0 -44 48 3 47 3 0 45 0 45 -40 3
c-23 2 -44 0 -48 -4z m73 -49 c0 -33 -2 -35 -35 -35 -33 0 -35 2 -35 35 0 33
2 35 35 35 33 0 35 -2 35 -35z"/>
<path d="M11589 718 c-1 -2 -2 -22 -3 -46 -2 -43 7 -62 19 -42 3 5 1 10 -6 10
-8 0 -8 4 1 15 10 11 10 18 1 29 -9 11 -9 15 1 18 9 3 9 6 0 12 -7 4 -12 6
-13 4z"/>
<path d="M11645 710 c-3 -5 -1 -10 6 -10 8 0 8 -4 -1 -15 -10 -12 -10 -18 0
-30 9 -11 9 -15 1 -15 -7 0 -9 -5 -6 -11 11 -17 19 -1 21 41 2 39 -9 60 -21
40z"/>
<path d="M11110 695 c-15 -18 -10 -45 12 -59 12 -7 21 -7 28 0 8 8 4 10 -12
10 -18 -1 -23 4 -23 24 0 20 4 25 23 23 13 -2 21 1 17 7 -9 14 -31 12 -45 -5z"/>
<path d="M11180 674 c-11 -12 -10 -18 3 -32 16 -15 18 -15 34 0 13 14 14 20 3
32 -7 9 -16 16 -20 16 -4 0 -13 -7 -20 -16z m36 -5 c10 -17 -13 -36 -27 -22
-12 12 -4 33 11 33 5 0 12 -5 16 -11z"/>
<path d="M11246 681 c-3 -5 5 -8 19 -8 14 0 22 3 19 8 -3 5 -11 9 -19 9 -8 0
-16 -4 -19 -9z"/>
<path d="M11305 680 c-3 -5 -2 -10 4 -10 5 0 13 5 16 10 3 6 2 10 -4 10 -5 0
-13 -4 -16 -10z"/>
<path d="M11365 679 c-4 -6 0 -9 11 -7 12 2 19 -3 19 -12 0 -9 -8 -14 -19 -13
-13 1 -15 -2 -7 -10 15 -15 44 14 35 36 -7 19 -29 23 -39 6z"/>
<path d="M11454 675 c-8 -20 2 -45 18 -45 10 0 9 3 -1 9 -20 13 -6 42 15 34
12 -4 15 -3 10 5 -10 17 -36 15 -42 -3z"/>
<path d="M11324 651 c4 -5 1 -12 -4 -14 -6 -3 -5 -4 2 -3 15 3 23 26 8 26 -6
0 -9 -4 -6 -9z"/>
<path d="M12565 431 c-7 -12 12 -24 25 -16 11 7 4 25 -10 25 -5 0 -11 -4 -15
-9z"/>
<path d="M3511 255 c1 -40 1 -40 10 -10 5 18 5 33 -1 39 -7 7 -10 -4 -9 -29z"/>
<path d="M4160 271 c0 -6 5 -13 10 -16 6 -3 10 1 10 9 0 9 -4 16 -10 16 -5 0
-10 -4 -10 -9z"/>
<path d="M4304 266 c-15 -12 -17 -18 -8 -33 18 -29 39 -22 42 15 4 35 -4 39
-34 18z m26 -27 c0 -24 -23 -21 -28 4 -2 10 3 17 12 17 10 0 16 -9 16 -21z"/>
<path d="M4747 273 c-2 -5 -1 -19 4 -33 7 -23 7 -23 8 8 1 31 -3 40 -12 25z"/>
<path d="M4810 270 c0 -5 5 -10 10 -10 6 0 10 5 10 10 0 6 -4 10 -10 10 -5 0
-10 -4 -10 -10z"/>
<path d="M4856 263 c-4 -9 -4 -18 -1 -21 3 -3 5 0 5 6 0 22 29 12 33 -10 l4
-23 2 22 c1 29 -34 50 -43 26z"/>
<path d="M5030 270 c0 -5 5 -10 10 -10 6 0 10 5 10 10 0 6 -4 10 -10 10 -5 0
-10 -4 -10 -10z"/>
<path d="M3584 255 c-4 -10 0 -23 10 -31 9 -8 11 -9 6 -2 -6 7 -10 18 -10 25
0 19 28 16 34 -4 4 -14 4 -14 3 2 -3 25 -35 32 -43 10z"/>
<path d="M3682 258 c-13 -13 1 -48 20 -48 6 0 3 9 -6 19 -17 18 -17 20 1 30
10 6 13 11 8 11 -6 0 -16 -5 -23 -12z"/>
<path d="M3744 256 c-3 -9 -4 -23 0 -31 6 -17 26 -20 26 -4 0 5 -4 7 -10 4 -5
-3 -10 3 -10 14 0 25 27 28 34 4 4 -14 4 -14 3 2 -3 24 -35 32 -43 11z"/>
<path d="M3818 263 c7 -3 16 -2 19 1 4 3 -2 6 -13 5 -11 0 -14 -3 -6 -6z"/>
<path d="M3870 255 c0 -8 2 -15 4 -15 2 0 6 7 10 15 3 8 1 15 -4 15 -6 0 -10
-7 -10 -15z"/>
<path d="M3942 264 c9 -3 19 -13 22 -22 3 -12 4 -12 3 3 -1 12 -10 21 -22 22
-15 1 -15 0 -3 -3z"/>
<path d="M4013 255 c-3 -9 -3 -19 1 -22 3 -4 6 2 6 11 0 13 6 17 20 13 11 -3
18 -1 14 4 -9 14 -34 10 -41 -6z"/>
<path d="M4080 259 c0 -5 5 -7 10 -4 6 3 10 8 10 11 0 2 -4 4 -10 4 -5 0 -10
-5 -10 -11z"/>
<path d="M4203 254 c-3 -8 1 -22 9 -30 13 -13 16 -13 27 0 7 9 11 23 7 31 -7
20 -35 19 -43 -1z m37 -9 c0 -8 -7 -15 -15 -15 -8 0 -15 7 -15 15 0 8 7 15 15
15 8 0 15 -7 15 -15z"/>
<path d="M4390 261 c0 -6 5 -13 12 -17 6 -4 8 -3 4 4 -3 5 0 13 6 15 8 3 6 6
-4 6 -10 1 -18 -3 -18 -8z"/>
<path d="M4450 260 c0 -5 7 -7 15 -4 8 4 15 8 15 10 0 2 -7 4 -15 4 -8 0 -15
-4 -15 -10z"/>
<path d="M4559 262 c17 -12 7 -47 -10 -36 -8 4 -9 3 -5 -4 4 -6 13 -9 22 -5
19 7 14 45 -6 50 -12 4 -13 3 -1 -5z"/>
<path d="M4709 264 c5 -3 7 -14 4 -25 -4 -15 -8 -17 -19 -8 -9 8 -14 8 -14 1
0 -16 16 -23 35 -16 19 7 17 46 -3 50 -7 1 -8 0 -3 -2z"/>
<path d="M4945 261 c-3 -5 0 -13 6 -17 7 -4 9 -3 5 4 -3 5 0 13 6 15 9 4 10 6
1 6 -6 1 -14 -3 -18 -8z"/>
<path d="M5101 248 c1 -19 2 -19 6 -5 3 11 11 16 19 13 8 -3 14 -1 14 4 0 6
-9 10 -20 10 -14 0 -20 -6 -19 -22z"/>
<path d="M5157 250 c3 -11 7 -20 9 -20 2 0 4 9 4 20 0 11 -4 20 -9 20 -5 0 -7
-9 -4 -20z"/>
<path d="M5195 260 c-8 -13 4 -50 16 -50 5 0 4 9 -3 20 -7 10 -9 23 -5 27 5 4
12 1 17 -7 8 -13 10 -12 10 3 0 18 -25 24 -35 7z"/>
<path d="M4615 246 c-10 -11 -16 -46 -9 -46 6 0 26 52 22 55 -2 2 -7 -2 -13
-9z"/>
<path d="M3546 235 c4 -8 10 -15 15 -15 5 0 9 7 9 15 0 8 -7 15 -15 15 -9 0
-12 -6 -9 -15z"/>
<path d="M4480 239 c0 -6 -7 -9 -15 -5 -9 3 -15 0 -15 -9 0 -19 17 -19 36 -1
16 17 18 26 4 26 -5 0 -10 -5 -10 -11z"/>
<path d="M3887 233 c-4 -3 -7 -11 -7 -17 0 -6 5 -5 12 2 6 6 9 14 7 17 -3 3
-9 2 -12 -2z"/>
<path d="M4096 223 c-6 -14 -5 -15 5 -6 7 7 10 15 7 18 -3 3 -9 -2 -12 -12z"/>
<path d="M4165 230 c3 -5 8 -10 11 -10 2 0 4 5 4 10 0 6 -5 10 -11 10 -5 0 -7
-4 -4 -10z"/>
<path d="M4967 233 c-4 -3 -7 -11 -7 -17 0 -6 5 -5 12 2 6 6 9 14 7 17 -3 3
-9 2 -12 -2z"/>
<path d="M3935 220 c3 -5 8 -10 11 -10 2 0 4 5 4 10 0 6 -5 10 -11 10 -5 0 -7
-4 -4 -10z"/>
<path d="M4400 220 c0 -5 4 -10 9 -10 6 0 13 5 16 10 3 6 -1 10 -9 10 -9 0
-16 -4 -16 -10z"/>
</g>
</svg>
